<svg width="24" height="24" viewBox="0 0 24 24" fill="none" xmlns="http://www.w3.org/2000/svg">
<path d="M19.8733 10.4434C19.5115 10.9116 19.1204 11.3474 18.6941 11.7134C17.5975 12.6547 16.5314 13.2526 15.5732 13.5466C15.2234 14.5766 14.6729 15.3733 13.9949 15.9058C13.9321 15.955 13.8693 16.0039 13.8044 16.0486C13.7868 16.0607 13.768 16.0704 13.7502 16.0823C13.6821 16.1275 13.6139 16.1725 13.5437 16.2126C13.4643 16.258 13.3832 16.2991 13.3013 16.3379C13.3008 16.3381 13.3003 16.3384 13.2998 16.3386C13.2782 16.3488 13.2564 16.3582 13.2346 16.3679C13.2326 16.3688 13.2308 16.37 13.2288 16.3708C13.1989 16.3842 13.1681 16.395 13.1379 16.4075C13.103 16.4218 13.0685 16.4374 13.0332 16.4507C13.011 16.459 12.989 16.4677 12.9665 16.4756C12.8803 16.506 12.7936 16.5341 12.7051 16.5576C12.6177 16.5808 12.5292 16.5998 12.44 16.6162C12.4389 16.6164 12.438 16.6168 12.437 16.6169C12.4106 16.6217 12.3838 16.6252 12.3572 16.6294C12.2896 16.6401 12.2214 16.649 12.1528 16.6558C12.1513 16.6559 12.1499 16.6563 12.1484 16.6565C12.1262 16.6587 12.1041 16.6606 12.0818 16.6623C12.0803 16.6625 12.0789 16.663 12.0774 16.6631C11.9846 16.6703 11.8913 16.6748 11.7969 16.6748C11.6956 16.6748 11.5953 16.67 11.4958 16.6616C11.413 16.6547 11.3311 16.6434 11.2498 16.6309C11.2355 16.6286 11.2208 16.6281 11.2065 16.6257C11.2061 16.6256 11.2055 16.6258 11.2051 16.6257C11.2038 16.6255 11.2026 16.6252 11.2014 16.625C11.1265 16.6123 11.053 16.5948 10.9795 16.5774C10.97 16.5751 10.9603 16.5738 10.9509 16.5715C10.94 16.5688 10.9288 16.567 10.918 16.5642C10.9175 16.5641 10.917 16.5636 10.9165 16.5635C10.8413 16.5441 10.7675 16.5211 10.6939 16.4968C10.6868 16.4945 10.6796 16.4926 10.6726 16.4902C10.661 16.4863 10.649 16.4833 10.6374 16.4792C10.6364 16.4789 10.6355 16.4781 10.6345 16.4778C10.5538 16.4495 10.4744 16.4175 10.3958 16.3833C10.3885 16.3801 10.381 16.3777 10.3738 16.3745C10.3728 16.3741 10.3719 16.3735 10.3708 16.373C10.3706 16.373 10.3703 16.3731 10.3701 16.373C10.3688 16.3725 10.3677 16.3714 10.3665 16.3708C10.2792 16.3319 10.1931 16.2889 10.1086 16.2427C10.0276 16.1983 9.94808 16.1501 9.86987 16.0991C9.86823 16.098 9.8664 16.0973 9.86473 16.0962C9.86206 16.0944 9.85937 16.0928 9.8567 16.091C9.85522 16.0901 9.85377 16.0891 9.85229 16.0881C9.77352 16.0362 9.69657 15.9805 9.62084 15.9219C9.61777 15.9195 9.6144 15.9177 9.61133 15.9153C8.92759 15.3828 8.37249 14.5829 8.02051 13.5466C7.06231 13.2526 5.99621 12.6547 4.89966 11.7134C4.47387 11.3479 4.08331 10.9124 3.72193 10.4448C3.66955 10.8183 3.64062 11.1994 3.64062 11.5874C3.64062 14.7028 5.38791 17.4091 7.95533 18.7827C8.09286 18.8563 8.23292 18.9249 8.375 18.9907C8.38986 18.9976 8.40477 19.0044 8.41967 19.0112C8.54199 19.067 8.6663 19.1196 8.79174 19.1694C8.82057 19.1809 8.84919 19.1927 8.87818 19.2039C8.88064 19.2048 8.88303 19.2058 8.88549 19.2068C9.00329 19.2519 9.12259 19.2938 9.24291 19.3335C9.24587 19.3344 9.24877 19.3355 9.2517 19.3364C9.2772 19.3448 9.30228 19.3539 9.32788 19.3621C9.47434 19.4086 9.62255 19.4511 9.77246 19.4895C9.79452 19.4951 9.81697 19.5001 9.83912 19.5056C9.83956 19.5057 9.84013 19.5055 9.84057 19.5056C9.97241 19.5381 10.1055 19.5675 10.2397 19.5935C10.2728 19.5999 10.3062 19.6051 10.3393 19.6111C10.4569 19.6323 10.5753 19.6513 10.6946 19.6675C10.7438 19.6741 10.793 19.6807 10.8425 19.6865C10.8852 19.6915 10.9285 19.6946 10.9714 19.699C11.045 19.7064 11.1185 19.714 11.1926 19.7195C11.1943 19.7196 11.1961 19.7193 11.1978 19.7195C11.2366 19.7223 11.2752 19.726 11.3142 19.7283C11.474 19.7376 11.6348 19.7436 11.7969 19.7436C11.9585 19.7436 12.1189 19.7383 12.2781 19.729C12.28 19.7289 12.282 19.7284 12.2839 19.7283C12.3251 19.7258 12.366 19.7218 12.407 19.7188C12.5257 19.7099 12.6435 19.6989 12.7607 19.685C12.8048 19.6799 12.8487 19.6748 12.8926 19.6689C12.8938 19.6688 12.895 19.6684 12.8962 19.6682C13.014 19.6523 13.131 19.6334 13.2471 19.6125C13.2864 19.6055 13.3259 19.5989 13.365 19.5913C13.4833 19.5682 13.6001 19.5411 13.7165 19.5129C13.7444 19.5062 13.773 19.5016 13.8008 19.4946C13.8061 19.4933 13.8116 19.4923 13.8169 19.491C13.8179 19.4907 13.8189 19.4905 13.8198 19.4902C13.9715 19.4514 14.1214 19.4077 14.2695 19.3606C14.303 19.3499 14.3358 19.338 14.3691 19.3269C14.4867 19.2878 14.6034 19.2466 14.7185 19.2024C14.7484 19.1909 14.7781 19.179 14.8079 19.1672C14.8086 19.1669 14.8093 19.1668 14.81 19.1665C14.9306 19.1185 15.0498 19.0677 15.1675 19.0141C15.1919 19.0031 15.2165 18.9925 15.2407 18.9812C15.38 18.9162 15.5175 18.8479 15.6523 18.7754C15.8054 18.6931 15.9551 18.6054 16.1021 18.5139C16.1217 18.5017 16.1411 18.489 16.1607 18.4766C16.2895 18.3948 16.4162 18.3096 16.54 18.2209C16.5567 18.209 16.5733 18.1971 16.5898 18.185C16.8657 17.9844 17.1283 17.7668 17.3765 17.5339C17.3978 17.5139 17.4184 17.4933 17.4395 17.4731C17.5445 17.3724 17.6475 17.2695 17.7471 17.1633C17.7636 17.1457 17.7805 17.1284 17.7969 17.1106C17.911 16.9868 18.0216 16.8597 18.1279 16.729C18.14 16.7142 18.1511 16.6985 18.1631 16.6836C18.2539 16.5704 18.3413 16.4545 18.426 16.3364C18.4496 16.3036 18.4732 16.2707 18.4963 16.2375C18.5836 16.1121 18.668 15.9842 18.7483 15.8537C18.7529 15.8462 18.7584 15.8393 18.7629 15.8318C18.8491 15.6906 18.9299 15.5455 19.0076 15.3989C19.0268 15.3626 19.0453 15.3257 19.064 15.2891C19.1231 15.1733 19.1795 15.0563 19.2331 14.9375C19.2497 14.9008 19.2669 14.8646 19.283 14.8276C19.3483 14.6769 19.4097 14.5237 19.4661 14.3684C19.4736 14.3476 19.4799 14.3263 19.4873 14.3054C19.535 14.1704 19.5791 14.0334 19.6199 13.8953C19.6337 13.8481 19.6471 13.8006 19.6602 13.7532C19.6952 13.6257 19.7272 13.497 19.7561 13.3672C19.7638 13.3324 19.773 13.2981 19.7803 13.2632C19.8146 13.099 19.8432 12.9335 19.8674 12.7659C19.8724 12.7318 19.8761 12.6975 19.8806 12.6633C19.8996 12.5191 19.9146 12.3733 19.926 12.2268C19.9287 12.1917 19.9318 12.1566 19.9341 12.1213C19.9455 11.9446 19.9531 11.767 19.9531 11.5874C19.9531 11.1991 19.9258 10.8171 19.8733 10.4434Z" stroke="#DBDEE1" stroke-width="0.8" stroke-miterlimit="10" stroke-linejoin="round"/>
<path d="M2.63086 8.76611C2.35662 9.65807 2.20896 10.6055 2.20898 11.5874C2.20898 15.2324 4.24357 18.4018 7.23851 20.0234C7.3957 20.1086 7.55592 20.188 7.71825 20.2644C7.74708 20.278 7.77642 20.2907 7.80541 20.3039C7.81666 20.309 7.82787 20.3142 7.83909 20.3193C7.8405 20.32 7.84209 20.3202 7.8435 20.3208C7.96793 20.3772 8.09351 20.4315 8.2207 20.4827C8.25089 20.4948 8.28117 20.5067 8.3115 20.5185C8.32547 20.5241 8.33925 20.53 8.35327 20.5354C8.35397 20.5357 8.35474 20.5358 8.35547 20.5361C8.48637 20.5865 8.61881 20.6342 8.75243 20.6789C8.7566 20.6804 8.7607 20.6819 8.76488 20.6834C8.80081 20.6953 8.83645 20.7077 8.87255 20.7192C9.0465 20.7749 9.22252 20.8272 9.40062 20.8731C9.4028 20.8736 9.40505 20.8739 9.4072 20.8745C9.58102 20.9191 9.7571 20.9575 9.93455 20.9924C9.99082 21.0035 10.0479 21.0124 10.1045 21.0224C10.2274 21.0444 10.3513 21.0646 10.4758 21.0818C10.4788 21.0822 10.4816 21.0828 10.4846 21.0832C10.5481 21.092 10.6118 21.1 10.6758 21.1074C10.6785 21.1077 10.6811 21.1079 10.6838 21.1082C10.8018 21.1218 10.9206 21.1325 11.0398 21.1418C11.0413 21.142 11.0427 21.1424 11.0442 21.1426C11.1097 21.1477 11.1746 21.1535 11.2405 21.1572C11.4246 21.1678 11.6096 21.1748 11.7964 21.1748C11.9878 21.1748 12.1775 21.1676 12.3662 21.1565C12.3694 21.1563 12.3725 21.156 12.3757 21.1558C12.4275 21.1527 12.4787 21.148 12.5303 21.144C12.533 21.1438 12.5356 21.1435 12.5383 21.1433C12.6625 21.1338 12.7861 21.1224 12.9089 21.1082C12.9805 21.0999 13.0517 21.0909 13.1228 21.081C13.2452 21.0641 13.3667 21.0447 13.4875 21.0232C13.4932 21.0222 13.4988 21.0213 13.5044 21.0203C13.5544 21.0113 13.6048 21.0029 13.6545 20.9932C13.8354 20.9576 14.0151 20.9186 14.1921 20.8731C14.1926 20.8729 14.1931 20.8724 14.1936 20.8723C14.3723 20.8263 14.5486 20.7744 14.7231 20.7185C14.7659 20.7048 14.808 20.6896 14.8506 20.6753C14.976 20.6332 15.1003 20.5891 15.2234 20.542C15.2258 20.541 15.2282 20.54 15.2307 20.5391C15.2874 20.5173 15.3437 20.4945 15.3999 20.4717C15.5098 20.427 15.6187 20.3804 15.7266 20.3318C15.7298 20.3304 15.7329 20.3288 15.7361 20.3274C15.7889 20.3036 15.842 20.2803 15.8943 20.2556C16.0537 20.1801 16.2115 20.1015 16.366 20.0176C16.3667 20.0172 16.3674 20.0165 16.3681 20.0161C19.3555 18.3922 21.3838 15.2268 21.3838 11.5874C21.3838 10.6074 21.2366 9.66171 20.9634 8.77125C20.6433 9.34919 20.2791 9.91746 19.8728 10.4434C19.9253 10.8171 19.9526 11.1992 19.9526 11.5874C19.9526 14.6972 18.2117 17.3995 15.6518 18.7754C14.5037 19.3926 13.1912 19.7437 11.7964 19.7437C10.4071 19.7437 9.09973 19.3953 7.95483 18.7827C5.38741 17.4091 3.64012 14.7028 3.64012 11.5874C3.64012 11.1994 3.66905 10.8183 3.72143 10.4448C3.31437 9.91816 2.95162 9.34469 2.63086 8.76611Z" stroke="#DBDEE1" stroke-width="0.8" stroke-miterlimit="10" stroke-linejoin="bevel"/>
<path d="M11.7966 2C9.15752 2 6.76783 3.06666 5.03418 4.79197C5.53124 4.95024 6.03981 5.13554 6.53931 5.35302C7.33523 5.69956 8.10651 6.12064 8.76513 6.62891C9.40867 5.34685 10.197 4.22302 10.8188 3.49119C11.2828 2.94528 11.6551 2.61376 11.7966 2.61376C11.9566 2.61376 12.3379 2.94732 12.8059 3.49559C12.8838 3.58679 12.964 3.6841 13.0461 3.78711C13.1081 3.86483 13.172 3.94848 13.2358 4.03245C13.2376 4.03482 13.2392 4.0367 13.241 4.03906C13.2476 4.04783 13.2541 4.05584 13.2607 4.06468C13.2645 4.0697 13.2679 4.07431 13.2717 4.07933C13.2797 4.08969 13.2877 4.09986 13.2959 4.11083C13.2963 4.11139 13.2969 4.11172 13.2974 4.11228C13.3006 4.11648 13.3036 4.12039 13.3069 4.12475C13.3247 4.14856 13.3424 4.17446 13.3604 4.19872C13.3989 4.25101 13.4378 4.30482 13.4768 4.35912C13.4839 4.36904 13.4909 4.37844 13.498 4.38842C13.5169 4.4146 13.5355 4.43923 13.5544 4.46605C13.5552 4.46708 13.5559 4.46795 13.5566 4.46898C13.5618 4.47634 13.5668 4.48423 13.572 4.49169C13.5951 4.5249 13.6184 4.55855 13.6416 4.59202C13.6956 4.67005 13.7493 4.7487 13.8035 4.83008C13.805 4.8323 13.8064 4.83441 13.8078 4.83666C13.809 4.83833 13.8097 4.84011 13.8108 4.8418C13.8137 4.84611 13.8167 4.84991 13.8196 4.85424C13.8338 4.87585 13.8478 4.89816 13.8621 4.92015C13.885 4.95566 13.9079 4.99077 13.9309 5.02634C13.9639 5.07744 13.9969 5.12902 14.0298 5.18089C14.0405 5.19784 14.0513 5.21427 14.062 5.23142C14.0691 5.2427 14.0762 5.25308 14.0832 5.2644C14.104 5.29773 14.1241 5.33319 14.1448 5.36694C14.146 5.36891 14.1472 5.3708 14.1484 5.3728C14.1618 5.3949 14.1753 5.41655 14.1887 5.4387C14.2315 5.50934 14.2745 5.58027 14.3169 5.65257C14.3186 5.65543 14.3196 5.6585 14.3213 5.66136C14.3227 5.66384 14.3242 5.66621 14.3257 5.6687C14.3314 5.67847 14.3376 5.68744 14.3433 5.69727C14.3569 5.72068 14.37 5.74545 14.3835 5.76903C14.4036 5.80426 14.4236 5.83913 14.4436 5.8745C14.4878 5.95266 14.5321 6.03127 14.5754 6.11108C14.5799 6.11928 14.5842 6.12774 14.5886 6.13597C14.5896 6.13789 14.5905 6.13991 14.5915 6.14183C14.5932 6.14485 14.595 6.14762 14.5967 6.15062C14.6059 6.1678 14.6146 6.18537 14.6238 6.20262C14.6454 6.24341 14.6674 6.28384 14.689 6.32495C14.7297 6.40259 14.7701 6.48041 14.8098 6.55932C14.8127 6.56506 14.815 6.57111 14.8179 6.5769C14.8193 6.57983 14.8208 6.58273 14.8223 6.58569C14.8281 6.59738 14.8347 6.60838 14.8406 6.62009C15.496 6.1164 16.2621 5.69874 17.0525 5.35447C17.5527 5.13659 18.0604 4.94947 18.5583 4.79124C16.8247 3.06638 14.4354 2 11.7966 2Z" stroke="#DBDEE1" stroke-width="0.8" stroke-miterlimit="10" stroke-linejoin="round"/>
<path d="M1.62472 4.10498C1.52083 4.10123 1.42871 4.1017 1.34933 4.10571C1.17797 4.11436 1.06675 4.14053 1.03 4.18335C0.856985 4.38489 1.43781 6.61298 2.63108 8.76539C2.63101 8.7656 2.63113 8.7659 2.63108 8.76611C2.95185 9.34469 3.31459 9.91816 3.72165 10.4448C4.08304 10.9124 4.4736 11.3479 4.89939 11.7134C5.99594 12.6547 7.06204 13.2526 8.02023 13.5466C7.98679 13.4482 7.95484 13.3474 7.92501 13.2449C7.71623 12.527 7.59836 11.7093 7.59836 10.7949C7.59836 9.42417 8.10348 7.94695 8.7651 6.62892C8.10648 6.12065 7.3352 5.69957 6.53929 5.35303C6.03979 5.13555 5.53122 4.95025 5.03415 4.79198C3.64635 4.35009 2.35199 4.13125 1.62472 4.10498Z" stroke="#DBDEE1" stroke-width="0.8" stroke-miterlimit="10" stroke-linejoin="bevel"/>
<path d="M10.8186 3.49121C9.19835 3.6849 7.72423 4.35263 6.53906 5.35304C7.33498 5.69959 8.10626 6.12066 8.76488 6.62893C9.40842 5.34687 10.1967 4.22305 10.8186 3.49121Z" stroke="#DBDEE1" stroke-width="0.8" stroke-miterlimit="10" stroke-linejoin="round"/>
<path d="M12.8057 3.49561C13.4284 4.22517 14.2076 5.34747 14.8403 6.62011C15.4958 6.11641 16.2619 5.69875 17.0523 5.35448C15.8748 4.36143 14.4131 3.69412 12.8057 3.49561Z" stroke="#DBDEE1" stroke-width="0.8" stroke-miterlimit="10" stroke-linejoin="round"/>
<path d="M19.8733 10.4434C19.5116 10.9116 19.1204 11.3474 18.6941 11.7134C17.5975 12.6547 16.5314 13.2526 15.5732 13.5466C14.8937 15.5471 13.4604 16.6748 11.7969 16.6748C10.1333 16.6748 8.70001 15.5471 8.02051 13.5466C7.06231 13.2526 5.99621 12.6547 4.89966 11.7134C4.47387 11.3479 4.08331 10.9124 3.72193 10.4448C3.66955 10.8183 3.64062 11.1994 3.64062 11.5874C3.64062 16.092 7.29223 19.7436 11.7969 19.7436C16.3015 19.7436 19.9531 16.092 19.9531 11.5874C19.9531 11.1991 19.9257 10.8171 19.8733 10.4434Z" stroke="#DBDEE1" stroke-width="0.8" stroke-miterlimit="10" stroke-linejoin="round"/>
<path d="M21.9688 4.10497C21.2414 4.13129 19.9464 4.35022 18.5586 4.79125C18.0607 4.94947 17.553 5.1366 17.0527 5.35447C16.2623 5.69875 15.4963 6.1164 14.8408 6.6201C14.8415 6.62157 14.8423 6.62303 14.843 6.6245C14.9117 6.76274 14.9774 6.90343 15.0422 7.04492C15.0541 7.0708 15.0671 7.09583 15.0789 7.12182C15.0808 7.12621 15.0827 7.13061 15.0847 7.135C15.1472 7.27393 15.2063 7.41482 15.2642 7.55614C15.275 7.5827 15.2871 7.60862 15.2979 7.63525C15.2991 7.63841 15.3002 7.64162 15.3015 7.64476C15.3631 7.79849 15.4207 7.95343 15.4758 8.10913C15.4816 8.12556 15.4884 8.14175 15.4941 8.15821C15.4947 8.15987 15.495 8.16165 15.4956 8.16332C15.5399 8.2906 15.58 8.41827 15.6194 8.54638C15.6353 8.59794 15.6527 8.64927 15.6677 8.70092C15.7176 8.87293 15.7629 9.04494 15.8025 9.21728C15.8338 9.35343 15.8589 9.48943 15.8831 9.62523C15.8909 9.6691 15.9009 9.71328 15.908 9.75707C15.9265 9.87318 15.9384 9.98809 15.9512 10.1035C15.9575 10.1606 15.9676 10.2181 15.9724 10.2749C15.9727 10.2778 15.9729 10.2808 15.9732 10.2837C15.9876 10.4553 15.9951 10.6259 15.9951 10.7949C15.9951 11.0009 15.987 11.2008 15.9753 11.397C15.9731 11.4355 15.9714 11.4745 15.9688 11.5127C15.9569 11.6779 15.9409 11.8388 15.9211 11.9968C15.9117 12.0734 15.9015 12.149 15.8904 12.2239C15.8707 12.3533 15.8493 12.4811 15.8245 12.6055C15.8244 12.6059 15.8246 12.6065 15.8245 12.6069C15.8047 12.7071 15.7815 12.8038 15.7585 12.9006C15.752 12.9279 15.7456 12.9549 15.7388 12.9819C15.6901 13.1773 15.6348 13.3655 15.5732 13.5466C16.5314 13.2526 17.5975 12.6547 18.6941 11.7134C19.1204 11.3474 19.5115 10.9116 19.8733 10.4434C20.2796 9.91745 20.6438 9.34918 20.9639 8.77124C22.1568 6.6171 22.7365 4.38493 22.5635 4.18335C22.5267 4.14053 22.4155 4.11435 22.2441 4.1057C22.1648 4.10171 22.0726 4.10122 21.9688 4.10497Z" stroke="#DBDEE1" stroke-width="0.8" stroke-miterlimit="10" stroke-linejoin="bevel"/>
<path d="M11.7959 2.61377L11.7959 16.6748" stroke="#DBDEE1" stroke-width="0.8" stroke-miterlimit="10" stroke-linejoin="bevel"/>
<path d="M13.9946 15.9058C13.9319 15.955 13.8691 16.0039 13.8042 16.0486C13.7866 16.0607 13.7678 16.0705 13.75 16.0823C13.6819 16.1275 13.6137 16.1725 13.5434 16.2127C13.4641 16.258 13.383 16.2991 13.301 16.3379C13.277 16.3493 13.2528 16.36 13.2285 16.3709C13.1641 16.3996 13.0988 16.426 13.033 16.4507C13.0107 16.4591 12.9887 16.4677 12.9663 16.4756C12.88 16.506 12.7933 16.5341 12.7048 16.5576C12.6175 16.5808 12.529 16.5999 12.4397 16.6162C12.4123 16.6212 12.3845 16.625 12.3569 16.6294C12.2894 16.6401 12.2211 16.649 12.1526 16.6558C12.1275 16.6582 12.1024 16.6611 12.0771 16.6631C11.9843 16.6703 11.891 16.6748 11.7966 16.6748C11.6954 16.6748 11.595 16.67 11.4956 16.6616C11.4128 16.6547 11.3309 16.6435 11.2495 16.6309C11.2352 16.6286 11.2205 16.6281 11.2063 16.6257C11.2058 16.6256 11.2053 16.6258 11.2048 16.6257C11.1191 16.6113 11.0346 16.5922 10.9507 16.5715C10.9398 16.5688 10.9286 16.567 10.9177 16.5642C10.8348 16.5429 10.7534 16.5176 10.6724 16.4902C10.6608 16.4863 10.6488 16.4833 10.6372 16.4793C10.5479 16.4481 10.4602 16.4129 10.3735 16.3745C10.3725 16.3741 10.3716 16.3735 10.3706 16.3731C10.3704 16.373 10.3701 16.3731 10.3699 16.3731C10.2813 16.3336 10.1941 16.2896 10.1084 16.2427C10.0257 16.1974 9.94429 16.1484 9.86448 16.0962C9.86034 16.0935 9.85619 16.0909 9.85204 16.0881C9.77327 16.0362 9.69632 15.9805 9.62059 15.9219C9.61752 15.9195 9.61415 15.9177 9.61108 15.9153L7.95508 18.7827C9.09998 19.3953 10.4074 19.7437 11.7966 19.7437C13.1915 19.7437 14.5039 19.3926 15.6521 18.7754L13.9946 15.9058Z" stroke="#DBDEE1" stroke-width="0.8" stroke-miterlimit="10" stroke-linejoin="bevel"/>
<path d="M13.3874 16.2932C12.8968 16.5425 12.3606 16.6748 11.7966 16.6748C11.238 16.6748 10.7066 16.5452 10.2197 16.3005V17.8269H13.3874V16.2932Z" stroke="#DBDEE1" stroke-width="0.8" stroke-miterlimit="10"/>
<path d="M11.7959 17.8269V19.7436" stroke="#DBDEE1" stroke-width="0.8" stroke-miterlimit="10"/>
</svg>
