<svg width="22" height="17" viewBox="0 0 22 17" fill="none" xmlns="http://www.w3.org/2000/svg">
<path d="M18.27 1.33005C16.94 0.710046 15.5 0.260046 14 4.59982e-05C13.9868 -0.000374605 13.9738 0.00209348 13.9617 0.00727676C13.9496 0.01246 13.9388 0.0202326 13.93 0.0300462C13.75 0.360046 13.54 0.790046 13.4 1.12005C11.809 0.880046 10.191 0.880046 8.6 1.12005C8.46 0.780046 8.25 0.360046 8.06 0.0300462C8.05 0.0100462 8.02 4.59982e-05 7.99 4.59982e-05C6.49 0.260046 5.06 0.710046 3.72 1.33005C3.71 1.33005 3.7 1.34005 3.69 1.35005C0.969995 5.42005 0.219995 9.38004 0.589995 13.3C0.589995 13.32 0.599995 13.34 0.619995 13.35C2.42 14.67 4.15 15.47 5.86 16C5.89 16.01 5.91999 16 5.93 15.98C6.33 15.43 6.69 14.85 7 14.24C7.02 14.2 7 14.16 6.96 14.15C6.39 13.93 5.85 13.67 5.32 13.37C5.28 13.35 5.27999 13.29 5.31 13.26C5.42 13.18 5.52999 13.09 5.64 13.01C5.66 12.99 5.69 12.99 5.71 13C9.15 14.57 12.86 14.57 16.26 13C16.28 12.99 16.31 12.99 16.33 13.01C16.44 13.1 16.55 13.18 16.66 13.27C16.7 13.3 16.7 13.36 16.65 13.38C16.13 13.69 15.58 13.94 15.01 14.16C14.97 14.17 14.96 14.22 14.97 14.25C15.29 14.86 15.65 15.44 16.04 15.99C16.07 16 16.1 16.01 16.13 16C17.85 15.47 19.58 14.67 21.38 13.35C21.4 13.34 21.41 13.32 21.41 13.3C21.85 8.77004 20.68 4.84005 18.31 1.35005C18.3 1.34005 18.29 1.33005 18.27 1.33005ZM7.52 10.91C6.49 10.91 5.63 9.96005 5.63 8.79005C5.63 7.62005 6.47 6.67005 7.52 6.67005C8.58 6.67005 9.42 7.63005 9.41 8.79005C9.41 9.96005 8.57 10.91 7.52 10.91ZM14.49 10.91C13.46 10.91 12.6 9.96005 12.6 8.79005C12.6 7.62005 13.44 6.67005 14.49 6.67005C15.55 6.67005 16.39 7.63005 16.38 8.79005C16.38 9.96005 15.55 10.91 14.49 10.91Z" fill="#FDFDFE"/>
</svg>
