<svg width="24" height="24" viewBox="0 0 24 24" fill="none" xmlns="http://www.w3.org/2000/svg">
<path d="M1.02344 17.4885L5.59706 22.0621M17.4885 1.93811H22.3813C22.7102 1.93811 22.9769 2.20479 22.9769 2.53375V7.42647M22.7709 2.14409L17.9459 6.96911M1.02344 22.0621L5.81081 17.2747" stroke="#DBDEE1" stroke-miterlimit="10" stroke-linecap="round" stroke-linejoin="round"/>
<path d="M10.4417 9.81287C10.4241 9.97353 10.4131 10.1361 10.4131 10.3014C10.4131 12.3382 11.7807 14.0523 13.6467 14.5846C13.6643 14.4237 13.676 14.2616 13.676 14.0961C13.676 12.059 12.308 10.3449 10.4417 9.81287Z" stroke="#DBDEE1" stroke-miterlimit="10" stroke-linecap="round" stroke-linejoin="round"/>
<path d="M9.2185 9.63855C6.75684 9.63855 4.76172 11.6344 4.76172 14.0961C4.76172 16.5577 6.75684 18.5528 9.2185 18.5528C10.573 18.5528 11.787 17.9486 12.6045 16.995C13.1728 16.3321 13.5467 15.4996 13.6467 14.5846C11.7807 14.0523 10.4131 12.3382 10.4131 10.3014C10.4131 10.1361 10.4241 9.97352 10.4417 9.81285C10.0526 9.70195 9.64312 9.63853 9.2185 9.63855Z" stroke="#DBDEE1" stroke-miterlimit="10" stroke-linecap="round" stroke-linejoin="round"/>
<path d="M10.4141 10.3015C10.4141 7.8398 12.4096 5.84424 14.8713 5.84424C17.333 5.84424 19.3285 7.8398 19.3285 10.3015C19.3285 11.4086 18.9249 12.4215 18.2567 13.2009C17.4392 14.1545 16.2258 14.7587 14.8713 14.7587C12.4096 14.7587 10.4141 12.7631 10.4141 10.3015Z" stroke="#DBDEE1" stroke-miterlimit="10" stroke-linecap="round" stroke-linejoin="round"/>
</svg>
