<svg width="64" height="64" viewBox="0 0 64 64" fill="none" xmlns="http://www.w3.org/2000/svg">
<path d="M22.0447 9.90018C25.2289 8.48043 28.4842 7.32438 31.9865 7.32313C35.4889 7.32188 38.7492 8.46669 41.957 9.90643C42.8304 8.34046 43.6789 6.80322 44.5298 5.26349C45.4145 3.66377 46.3053 2.0678 47.17 0.458086C47.3709 0.0831516 47.6017 -0.0193321 48.0172 0.0306591C49.4034 0.201879 49.3897 0.184383 49.3286 1.57414C49.1352 5.60718 48.9542 9.64273 48.7521 13.6758C48.7309 14.1057 48.8919 14.3432 49.1763 14.6256C50.061 15.5005 50.9144 16.4115 51.7504 17.3364C51.9147 17.539 52.0029 17.7928 51.9999 18.0538C51.8394 24.8184 51.6684 31.5831 51.4871 38.3477C51.3781 42.5736 51.2658 46.7987 51.1502 51.023C51.1384 51.2644 51.054 51.4966 50.9082 51.6891C47.887 55.4785 44.8559 59.2591 41.8148 63.0309C41.6599 63.2035 41.4434 63.3081 41.2121 63.3221C35.0784 63.3371 28.945 63.3371 22.8121 63.3221C22.5806 63.3141 22.3614 63.2154 22.2019 63.0471C19.1725 59.292 16.1559 55.5264 13.1522 51.7504C12.9711 51.5102 12.8664 51.2211 12.8515 50.9205C12.5546 39.9724 12.2709 29.0243 12.0006 18.0763C11.9921 17.8154 12.0751 17.5598 12.2352 17.3539C13.1011 16.4015 14.0144 15.4917 14.8816 14.5394C15.0637 14.3394 15.2334 14.0195 15.2222 13.762C15.0438 9.519 14.8366 5.27724 14.6308 1.03548C14.5871 0.140641 14.5746 0.14189 15.463 0.0856498C15.6306 0.0872555 15.7978 0.0713381 15.9621 0.0381575C16.405 -0.0868206 16.6346 0.103147 16.848 0.491829C18.4513 3.42632 20.0771 6.34831 21.6966 9.27404C21.8014 9.47526 21.9137 9.66897 22.0447 9.90018ZM43.7899 35.2283C43.8336 35.1195 43.876 35.0095 43.9147 34.9008H43.9234C44.117 34.7545 44.297 34.591 44.4612 34.4121C45.2997 33.3298 46.0832 32.2025 47.3921 31.5989C47.5481 31.5264 47.6641 31.2027 47.6691 30.9915C47.7227 28.7644 47.6691 26.531 47.8176 24.3102C47.9087 22.9604 47.1251 22.1355 46.5012 21.1145C46.3353 21.3007 46.2217 21.4207 46.1157 21.5469C44.8879 23.0154 43.6652 24.4876 42.4287 25.9486C42.3139 26.0836 42.1105 26.1436 41.9483 26.2386C41.9995 26.0461 42.0007 25.8161 42.1118 25.6687C42.4474 25.2188 42.8279 24.8038 43.1885 24.3727C44.1967 23.1629 45.2036 21.9506 46.2317 20.7145L44.9553 19.0986C42.6046 21.7306 40.4186 24.3851 38.1003 26.9185L37.8508 26.7047C38.849 25.3137 40.0593 24.0802 41.1685 22.7792C42.3076 21.4357 43.473 20.1134 44.6933 18.7061L42.5572 16.7902C42.501 16.854 42.3775 16.9864 42.2627 17.1277C39.749 20.2313 37.2328 23.3328 34.714 26.4323C34.5893 26.5935 34.3397 26.666 34.1551 26.7797C34.2362 26.5723 34.2723 26.3286 34.4046 26.1548C35.5687 24.6888 36.7491 23.2353 37.9257 21.7806L42.3338 16.3491L39.7486 14.4144C36.4009 18.4899 33.1868 22.5617 29.8804 26.5535L29.6196 26.3461C30.5442 24.9288 31.7033 23.684 32.7514 22.358C33.8344 20.9832 34.9474 19.6397 36.0453 18.2812C37.1259 16.9452 38.2039 15.6067 39.3643 14.1694L36.4658 12.8409C34.9449 14.6918 33.4938 16.4653 32.0414 18.2262C29.9394 20.7791 27.835 23.3307 25.728 25.8811C25.572 26.0347 25.4006 26.1717 25.2164 26.2898L25.0218 26.0711L36.0466 12.6635C35.0085 12.5385 34.1139 12.4022 33.2143 12.3448C33.0783 12.3508 32.9449 12.384 32.8219 12.4423C32.699 12.5007 32.5889 12.5831 32.4981 12.6847C30.9771 14.4219 29.4811 16.1841 27.9776 17.9338C24.8766 21.5498 21.774 25.1646 18.6696 28.7781C18.5169 28.9225 18.3497 29.0507 18.1705 29.1606L17.9622 28.9381C22.6711 23.4391 27.3808 17.9442 32.0913 12.4535C32.0564 12.3947 32.0227 12.3348 31.989 12.276C31.0395 12.3435 30.0887 12.3922 29.143 12.4922C28.9051 12.533 28.6884 12.6544 28.5291 12.8359C24.5115 17.5018 20.5046 22.1772 16.5086 26.8622C16.3468 27.0669 16.2557 27.3186 16.2491 27.5796C16.2491 28.7044 16.3052 29.8292 16.3015 30.954C16.3015 31.3427 16.4337 31.5726 16.7694 31.7339C17.7101 32.185 18.4238 32.8874 19.0078 33.7448C19.296 34.1672 19.6316 34.5559 19.9498 34.9595L20.2181 35.227C20.681 35.8369 21.1389 36.4518 21.6143 37.0504C21.6692 37.1204 21.8289 37.1054 21.9399 37.1304L21.9224 37.1104C21.9374 37.2491 21.9075 37.4179 21.9761 37.5204C22.1845 37.8303 22.444 38.1053 22.6611 38.4102C23.1539 39.0988 23.7154 39.7562 24.0935 40.5048C24.4715 41.2535 24.6737 42.1033 24.9369 42.9132C24.9993 43.1031 25.0804 43.3518 25.0093 43.5068C24.741 44.0892 24.499 44.7166 24.0922 45.194C22.5812 46.9662 21.0104 48.6934 19.452 50.4181C19.3272 50.5431 19.1263 50.6006 18.9604 50.6893C19.0215 50.5006 19.0327 50.2669 19.1525 50.1294C20.2892 48.8296 21.4471 47.5486 22.59 46.2551C23.2899 45.464 24.0785 44.7341 24.4416 43.6993C24.499 43.5356 24.5813 43.3031 24.5127 43.1856C24.0411 42.3783 23.6867 41.4059 23.003 40.8398C21.4071 39.5163 19.8837 37.994 17.7002 37.6053C17.287 37.5112 16.8789 37.3961 16.4774 37.2604C16.452 37.3552 16.4332 37.4517 16.4213 37.5491C16.4762 41.6921 16.5286 45.8352 16.6009 49.9769C16.6253 50.1976 16.7223 50.4038 16.8767 50.5631C19.5493 53.4467 22.2302 56.3212 24.9195 59.1866C25.105 59.3705 25.3474 59.486 25.6069 59.514C26.7049 59.6002 27.8167 59.5602 28.9034 59.7115C30.1911 59.8889 31.1705 59.6527 31.6297 58.3042C31.6471 58.2662 31.6684 58.2302 31.6933 58.1967C31.8917 57.8693 32.0913 57.8655 32.2935 58.1967C32.5155 58.5966 32.7609 58.9831 33.0284 59.354C33.1694 59.5315 33.4389 59.7177 33.6522 59.7127C35.2327 59.6777 36.8106 59.6127 38.3861 59.5177C38.6464 59.4922 38.8899 59.3769 39.0748 59.1916C41.7674 56.3271 44.4475 53.4526 47.1151 50.5681C47.2853 50.3704 47.3845 50.1214 47.3971 49.8607C47.4695 45.8614 47.5219 41.8621 47.5755 37.8703C47.5755 37.6891 47.558 37.5079 47.5431 37.2317C46.4338 37.5841 45.2598 37.7141 44.3739 38.289C42.4724 39.5213 40.5059 40.7748 39.5751 43.0206C39.5028 43.1931 39.4317 43.4468 39.5065 43.5843C39.8184 44.1654 40.1229 44.7716 40.5471 45.2677C41.9383 46.8925 43.3869 48.4747 44.7981 50.0857C44.9328 50.2394 44.9615 50.4868 45.0401 50.6918C44.8592 50.5881 44.6384 50.5231 44.5049 50.3769C43.5391 49.317 42.5759 48.2522 41.6351 47.1637C40.733 46.1138 39.6163 45.2178 39.1397 43.853C39.0294 43.5556 39.0026 43.2335 39.0623 42.9219C39.5252 41.0385 40.3487 39.3363 41.7087 37.9228C41.8701 37.7333 42.0193 37.5338 42.1554 37.3254L42.1417 37.3391L43.7962 35.2208L43.7899 35.2283ZM22.1695 56.8957L19.7003 59.2365C20.6223 60.3863 21.4945 61.4974 22.3991 62.5822C22.5627 62.7533 22.7865 62.8538 23.0229 62.8622C29.012 62.8772 34.9977 62.8772 40.9801 62.8622C41.1972 62.8612 41.4056 62.7761 41.5615 62.6247C42.4773 61.5237 43.3645 60.3988 44.3002 59.2328L41.831 56.892C40.9788 57.8068 40.1853 58.6841 39.3568 59.5265C39.1559 59.7302 38.8465 59.9252 38.5745 59.9427C36.8751 60.0535 35.1736 60.1301 33.4701 60.1726C33.2455 60.1789 32.9523 59.9864 32.8 59.7977C32.5018 59.4328 32.281 59.0041 31.9965 58.5479C31.7519 58.9051 31.5266 59.2752 31.3215 59.6565C31.1106 60.1002 30.8224 60.2201 30.3333 60.1876C28.7375 60.0814 27.1366 60.0489 25.5408 59.9377C25.2018 59.8992 24.885 59.7493 24.64 59.5115C23.8028 58.6854 23.0154 57.8031 22.1695 56.8957ZM16.1031 22.3218C16.9116 21.2182 17.6166 20.1596 18.4238 19.1861C19.2311 18.2125 20.1507 17.3301 20.9954 16.3853C21.0503 16.3004 21.0863 16.2047 21.101 16.1046C21.1156 16.0045 21.1085 15.9025 21.0802 15.8054C19.7077 11.4728 18.3261 7.14025 16.9353 2.80767C16.6858 2.02656 16.42 1.2492 16.1567 0.456835L15.0587 0.581813C15.4081 7.83804 15.7537 15.043 16.1031 22.3218ZM47.8226 0.461835C46.1531 5.66967 44.5024 10.8113 42.8704 15.9591C42.8279 16.0928 42.9502 16.3403 43.0712 16.459C44.8071 18.108 46.3306 19.9674 47.6067 21.9943C47.6962 22.1107 47.7928 22.2213 47.8962 22.3255C48.2455 15.0268 48.5912 7.8193 48.938 0.570566L47.8226 0.461835ZM16.2041 26.2848L16.3639 26.3486L27.9564 12.8172C27.7987 12.8333 27.6426 12.8626 27.4898 12.9047C26.6912 13.2533 25.8677 13.5508 25.1066 13.972C21.2886 16.0891 18.5449 19.2773 16.3115 22.9579C16.2477 23.0619 16.2124 23.1808 16.2091 23.3028C16.2004 24.2977 16.2041 25.2912 16.2041 26.2848ZM16.1255 42.8369H13.2209V50.3868C14.2427 49.8069 15.1049 49.327 15.9534 48.8259C16.0057 48.781 16.0479 48.7255 16.0772 48.663C16.1064 48.6005 16.1221 48.5325 16.123 48.4634C16.128 46.5938 16.1255 44.7291 16.1255 42.8369ZM47.8912 42.8144C47.8912 44.2904 47.991 45.7314 47.86 47.1499C47.7489 48.3522 48.0696 49.1058 49.2325 49.5245C49.7316 49.7057 50.1795 50.0444 50.8146 50.3993V42.8144H47.8912ZM45.3084 57.9805C46.7171 56.2171 48.0197 54.5899 49.3373 52.9414C48.555 52.334 47.84 51.7791 47.1164 51.213L43.1062 55.5184L45.3084 57.9805ZM20.8694 55.4935L16.8767 51.2155L14.6557 52.9464L18.6921 57.978L20.8694 55.4935ZM25.6656 8.85037C26.3132 10.0502 26.8534 11.0762 27.4249 12.0836C27.4794 12.1561 27.5504 12.2146 27.632 12.2541C27.7136 12.2937 27.8034 12.3132 27.894 12.311C28.8498 12.1573 29.7993 11.9623 30.7925 11.7724V7.71807L25.6656 8.85037ZM33.2068 7.72556V11.7761C34.2125 11.9686 35.1632 12.1598 36.1177 12.3248C36.2425 12.3473 36.4721 12.2848 36.5257 12.1898C37.1171 11.1287 37.6836 10.0527 38.3262 8.85286L33.2068 7.72556ZM51.4334 24.5726V19.0611C50.4652 19.7685 49.5282 20.4521 48.5949 21.1395C48.5163 21.197 48.409 21.2819 48.404 21.3607C48.3316 22.4055 48.2792 23.4516 48.2094 24.5726H51.4334ZM12.587 19.0736V24.5489H15.7912C15.7288 23.4628 15.6776 22.4717 15.6052 21.4819C15.582 21.3466 15.5079 21.2254 15.3981 21.1432C14.4686 20.4508 13.5328 19.7697 12.587 19.0761V19.0736ZM48.1345 32.0963V35.2757H51.129V32.0963H48.1345ZM12.8915 32.0826V35.3832L15.856 35.2432V32.0863L12.8915 32.0826ZM51.2588 26.741L48.1981 26.566V29.6592H51.2588V26.741ZM15.7949 29.6555V26.566L12.7467 26.7485V29.6555H15.7949ZM15.9658 37.6153L13.025 37.7778V40.6323L15.9658 40.4586V37.6153ZM51.0017 37.7666L48.0459 37.6278V40.4623L51.0017 40.6236V37.7666ZM22.2468 10.3026L24.2519 13.927L25.698 13.1359C25.0567 11.9448 24.4416 10.8013 23.8077 9.62648L22.2468 10.3026ZM39.7511 13.9207L41.7474 10.2964L40.1716 9.63273L38.3 13.1471L39.7511 13.9207ZM15.4967 18.6999C15.4293 17.3339 15.3719 16.1278 15.307 14.8593L13.0611 17.0052L15.4967 18.6999ZM50.8283 17.0864L48.6847 14.9118C48.6273 16.1441 48.5699 17.3489 48.5063 18.6924L50.8283 17.0864Z" fill="#22221F"/>
<path d="M42.1592 37.3191C42.023 37.5275 41.8738 37.727 41.7125 37.9165C40.3525 39.3313 39.529 41.0335 39.0661 42.9157C39.0064 43.2273 39.0331 43.5493 39.1434 43.8467C39.6201 45.2115 40.7368 46.1076 41.6389 47.1574C42.5734 48.246 43.5366 49.3108 44.5086 50.3706C44.6421 50.5168 44.863 50.5818 45.0439 50.6856C44.9653 50.4806 44.9366 50.2331 44.8018 50.0794C43.3907 48.4684 41.9421 46.8887 40.5509 45.2615C40.1266 44.7616 39.8222 44.1592 39.5103 43.578C39.4354 43.4406 39.5103 43.1869 39.5789 43.0144C40.5134 40.7648 42.4761 39.515 44.3776 38.2827C45.2635 37.7078 46.4376 37.5778 47.5468 37.2254C47.5618 37.5016 47.5817 37.6828 47.5792 37.864C47.5256 41.8633 47.4732 45.8626 47.4008 49.8545C47.3882 50.1152 47.289 50.3641 47.1188 50.5618C44.4512 53.4488 41.7711 56.3233 39.0785 59.1853C38.8936 59.3707 38.6502 59.486 38.3898 59.5115C36.8094 59.604 35.2314 59.669 33.656 59.7065C33.4489 59.7065 33.1793 59.5253 33.0321 59.3478C32.7646 58.9768 32.5192 58.5904 32.2972 58.1905C32.0951 57.8618 31.8954 57.8655 31.6971 58.1905C31.6721 58.224 31.6508 58.26 31.6334 58.298C31.1743 59.654 30.1898 59.8902 28.9072 59.7165C27.8204 59.5652 26.7087 59.6052 25.6107 59.519C25.3511 59.491 25.1087 59.3755 24.9232 59.1916C22.2306 56.3271 19.5497 53.4526 16.8804 50.5681C16.7261 50.4088 16.6291 50.2025 16.6047 49.9819C16.5323 45.8401 16.4799 41.6971 16.425 37.5541C16.437 37.4567 16.4557 37.3602 16.4811 37.2654C16.8826 37.4011 17.2907 37.5162 17.7039 37.6103C19.8899 37.999 21.4109 39.5213 23.0067 40.8448C23.6904 41.4109 24.0448 42.3833 24.5164 43.1906C24.5851 43.3081 24.5027 43.5406 24.4453 43.7043C24.0822 44.7391 23.2937 45.469 22.5937 46.2601C21.4508 47.5523 20.2929 48.8334 19.1562 50.1344C19.0315 50.2719 19.0252 50.5093 18.9641 50.6943C19.13 50.6056 19.3384 50.5543 19.4557 50.4231C21.0141 48.6934 22.585 46.9712 24.096 45.199C24.5027 44.7216 24.7448 44.0942 25.013 43.5118C25.0842 43.3568 25.003 43.1081 24.9407 42.9182C24.6774 42.1083 24.4778 41.2635 24.0972 40.5098C23.7167 39.7562 23.1577 39.1038 22.6648 38.4152C22.4477 38.1103 22.1882 37.8353 21.9798 37.5254C21.9112 37.4229 21.9412 37.2541 21.9262 37.1154C22.3005 37.4466 22.7472 37.6253 23.1489 37.2791C23.3985 37.0692 23.6243 36.6543 23.5894 36.3606C23.5491 36.19 23.4696 36.0312 23.3571 35.8969C23.2447 35.7626 23.1025 35.6564 22.9418 35.5869C22.6636 35.4995 22.2044 35.6444 21.9649 35.8506C21.5469 36.2118 21.6404 36.6992 21.9436 37.1354C21.8326 37.1104 21.6729 37.1254 21.618 37.0554C21.1426 36.4568 20.6847 35.8419 20.2218 35.232C20.3615 35.2583 20.5013 35.282 20.6398 35.3095C21.2212 35.422 21.7378 35.0745 21.8214 34.5121C21.8419 34.3848 21.8354 34.2547 21.8023 34.1301C21.7693 34.0054 21.7104 33.8892 21.6296 33.7889C21.5487 33.6886 21.4477 33.6064 21.333 33.5478C21.2184 33.4891 21.0927 33.4553 20.9642 33.4486C20.3466 33.4148 19.951 33.7848 19.9436 34.4096C19.9436 34.5946 19.9436 34.7846 19.9535 34.9646C19.6379 34.5609 19.2997 34.1722 19.0115 33.7498C18.4276 32.8924 17.7139 32.19 16.7731 31.7389C16.4375 31.5776 16.3027 31.3477 16.3052 30.959C16.3052 29.8342 16.2491 28.7094 16.2528 27.5846C16.2594 27.3236 16.3505 27.0719 16.5123 26.8672C20.505 22.183 24.5119 17.5076 28.5328 12.8409C28.6922 12.6594 28.9089 12.538 29.1467 12.4972C30.0925 12.3972 31.0432 12.3485 31.9928 12.281C32.0265 12.3398 32.0601 12.3997 32.0951 12.4585C27.3854 17.9575 22.6756 23.4524 17.9659 28.9431L18.1718 29.1656C18.3509 29.0557 18.5182 28.9275 18.6709 28.7831C21.7777 25.1713 24.8804 21.5565 27.9789 17.9388C29.4824 16.1891 30.9734 14.4269 32.4993 12.6897C32.5901 12.5881 32.7002 12.5057 32.8232 12.4473C32.9462 12.389 33.0796 12.3558 33.2155 12.3498C34.1151 12.4072 35.0097 12.5435 36.0478 12.6684L25.0218 26.0711L25.2164 26.2898C25.4006 26.1717 25.572 26.0347 25.728 25.8811C27.8383 23.3341 29.9428 20.7824 32.0414 18.2262C33.4938 16.4603 34.9449 14.6918 36.4658 12.8409L39.3643 14.1632C38.2039 15.6004 37.1259 16.939 36.0453 18.275C34.9474 19.6335 33.8344 20.9807 32.7514 22.3518C31.7033 23.6778 30.5442 24.9226 29.6196 26.3398L29.8804 26.5473C33.1868 22.5555 36.4009 18.4837 39.7486 14.4081L42.3338 16.3491L37.9257 21.7869C36.7491 23.2429 35.5687 24.6963 34.4046 26.1611C34.2723 26.3286 34.2362 26.5723 34.1551 26.786C34.3435 26.6723 34.583 26.5998 34.714 26.4385C37.2386 23.3433 39.7548 20.2417 42.2627 17.1339C42.3775 16.9927 42.501 16.8602 42.5572 16.7965L44.6933 18.7124C43.473 20.1196 42.3076 21.4419 41.1685 22.7854C40.0593 24.0902 38.854 25.32 37.8508 26.711L38.1003 26.9247C40.4186 24.3914 42.6046 21.7369 44.9553 19.1048L46.233 20.7195C45.2048 21.9556 44.1979 23.1679 43.1898 24.3777C42.8292 24.8088 42.4486 25.2238 42.113 25.6737C42.002 25.8211 42.0007 26.0486 41.9495 26.2436C42.1117 26.1486 42.3151 26.0886 42.4299 25.9536C43.6664 24.4926 44.8892 23.0204 46.1169 21.5519C46.223 21.4269 46.3365 21.3019 46.5025 21.1195C47.1263 22.1405 47.9099 22.9654 47.8188 24.3152C47.6691 26.536 47.724 28.7694 47.6703 30.9965C47.6703 31.2077 47.5456 31.5314 47.3933 31.6039C46.0857 32.2075 45.3009 33.3348 44.4624 34.4171C44.2983 34.596 44.1183 34.7595 43.9247 34.9058C43.9687 34.8128 44.0046 34.7163 44.032 34.6171C44.1193 34.1422 44.0045 33.6685 43.5329 33.5485C43.1479 33.4749 42.7493 33.5538 42.4212 33.7685C42.0556 34.026 42.0656 34.5059 42.3214 34.8933C42.431 35.0843 42.6066 35.2286 42.815 35.299C43.0234 35.3694 43.2503 35.3612 43.4531 35.2757C43.5647 35.248 43.6788 35.2317 43.7937 35.227L42.1429 37.3404C42.1816 37.1417 42.2166 36.943 42.259 36.7455C42.3625 36.2668 42.2228 35.8819 41.7986 35.6344C41.3744 35.387 40.9589 35.4657 40.6232 35.8219C40.4696 35.9649 40.3724 36.1585 40.3495 36.3673C40.3266 36.5761 40.3795 36.7862 40.4984 36.9592C40.6004 37.1538 40.7687 37.3053 40.9727 37.3862C41.1766 37.4672 41.4028 37.4722 41.6102 37.4004C41.7911 37.361 41.9746 37.3338 42.1592 37.3191ZM29.9315 32.2113C28.9908 31.7939 28.06 31.3664 27.1067 30.9702C26.9021 30.884 26.5901 30.8115 26.4279 30.9053C25.4797 31.4577 24.5564 32.0538 23.638 32.6549C23.5744 32.6997 23.5221 32.7587 23.4853 32.8273C23.4485 32.8958 23.4281 32.9721 23.4259 33.0499C23.4446 33.1649 23.6218 33.2998 23.7566 33.3461C26.6263 34.3922 26.9183 34.3634 29.5485 32.8149C29.5847 32.7937 29.6358 32.7799 29.652 32.7474C29.7469 32.5662 29.8342 32.3813 29.924 32.1975C30.236 32.8562 30.2509 33.4198 29.7144 34.0435C28.5653 35.3795 27.5035 36.793 26.4117 38.1765C26.3094 38.3271 26.2189 38.4855 26.141 38.6502L26.2657 38.7751C26.4034 38.7248 26.5335 38.6558 26.6525 38.5702C28.233 37.0371 29.8038 35.4957 31.3652 33.946C31.4899 33.821 31.6147 33.5173 31.5561 33.4211C31.1605 32.8099 30.7101 32.2325 30.1748 31.5039L29.9315 32.2113ZM34.049 32.2113C33.9804 32.0388 33.913 31.8676 33.7857 31.5501C33.3166 32.165 32.9535 32.6625 32.5655 33.1399C32.2997 33.4686 32.3571 33.7148 32.6478 33.9972C34.1987 35.497 35.7347 37.0167 37.2856 38.5202C37.4041 38.6352 37.5925 38.6777 37.7497 38.7539L37.8645 38.6089C37.7547 38.4477 37.6549 38.279 37.5351 38.1265C36.4534 36.7592 35.4015 35.3645 34.2673 34.0422C33.7346 33.4173 33.7408 32.8562 34.0577 32.1975C34.165 32.3913 34.2237 32.6649 34.3884 32.7649C35.1682 33.2361 35.9717 33.6673 36.7778 34.0922C36.9373 34.174 37.12 34.1987 37.2956 34.1622C38.2363 33.9172 39.1721 33.6544 40.1029 33.3736C40.2776 33.3211 40.4198 33.1624 40.5771 33.0536C40.466 32.8962 40.3874 32.6899 40.2377 32.59C39.4267 32.0526 38.5882 31.5539 37.7797 31.0127C37.651 30.9127 37.4955 30.8533 37.333 30.8424C37.1705 30.8315 37.0084 30.8695 36.8676 30.9515C35.9493 31.3939 35.001 31.7939 34.0577 32.2113H34.049ZM35.56 42.5407C36.0591 42.2233 36.4746 41.9483 36.9 41.6921C37.2007 41.5097 37.2469 41.3234 37.0073 41.0447C36.0216 39.8899 35.0509 38.7239 34.0602 37.5741C33.9779 37.4791 33.792 37.4741 33.6547 37.4279C33.6822 37.5703 33.6647 37.7503 33.7446 37.8503C34.2436 38.4652 34.759 39.0613 35.268 39.6662C35.7147 40.1961 36.1576 40.7285 36.6467 41.3147C35.4215 41.7696 34.2761 42.1358 33.1768 42.622C32.3546 42.9869 31.6334 42.9969 30.8062 42.622C29.6995 42.122 28.5366 41.7584 27.3238 41.3072C28.322 40.1249 29.259 39.0188 30.1823 37.899C30.2784 37.7841 30.2809 37.5916 30.3258 37.4341C30.1761 37.4916 29.9752 37.5054 29.8829 37.6128C28.9034 38.7464 27.9489 39.8987 26.9732 41.0347C26.6962 41.3572 26.816 41.5347 27.1204 41.7184C27.5397 41.9683 27.9464 42.2433 28.4131 42.5432C28.1635 42.7819 27.9551 42.9557 27.7717 43.1494C26.9333 44.0392 26.0848 44.9203 25.2701 45.8326C24.6836 46.4913 24.9993 47.2437 25.2701 47.8898C25.3749 48.1397 25.9276 48.2135 26.3805 48.4122C26.3805 48.4009 26.4042 48.5372 26.4417 48.6797C26.7424 49.7782 27.1516 50.823 28.1136 51.5217C29.2565 52.3528 30.4294 53.1464 31.5723 53.9725C31.9029 54.2137 32.1387 54.1687 32.4519 53.9412C33.5262 53.1589 34.6504 52.4415 35.696 51.6241C36.1949 51.226 36.6158 50.7387 36.9375 50.1869C37.2856 49.5907 37.4665 48.8984 37.7235 48.2397C38.7217 48.221 38.7217 48.186 38.9376 47.1937C39.0711 46.5688 38.9663 46.0464 38.5408 45.5802C38.0417 45.029 37.5426 44.4641 37.0285 43.9292C36.5894 43.4693 36.1077 43.0481 35.57 42.5407H35.56ZM29.2415 30.4816C27.8491 29.7067 26.4666 28.9506 25.0979 28.1682C24.7398 27.9633 24.474 27.9645 24.1484 28.2332C23.2026 29.0118 22.2306 29.7605 21.2786 30.5253C21.1644 30.6308 21.0585 30.7449 20.9617 30.8665L21.0328 31.054C21.2412 31.0165 21.4658 31.019 21.6567 30.929C22.5625 30.5166 23.4459 30.0542 24.3655 29.6717C24.6979 29.5469 25.0612 29.5302 25.4036 29.6242C26.1759 29.8554 26.9208 30.1804 27.6769 30.4691C29.4524 31.1477 29.4549 31.149 30.6714 29.6867C30.7449 29.567 30.802 29.438 30.8411 29.303L30.6602 29.1568C30.1985 29.5855 29.7469 30.0079 29.2415 30.4816ZM33.4214 29.1068L33.1469 29.3443C33.2334 29.5044 33.3332 29.657 33.4451 29.8005C33.7545 30.1379 34.1114 30.4341 34.3946 30.7903C34.6267 31.0827 34.8363 31.064 35.1432 30.9428C36.26 30.4966 37.3891 30.0954 38.5058 29.633C38.701 29.5435 38.9147 29.5023 39.1291 29.513C39.3434 29.5236 39.552 29.5858 39.7373 29.6942C40.6107 30.1379 41.4841 30.5466 42.3788 30.944C42.5584 31.0252 42.7805 31.0065 42.9827 31.034L43.0463 30.8328C42.9003 30.6953 42.7631 30.5491 42.6083 30.4241C41.7137 29.7117 40.8004 29.0243 39.927 28.2882C39.5427 27.9633 39.2445 27.9645 38.8215 28.2095C37.4777 28.9893 36.1102 29.7255 34.4545 30.6478L33.4214 29.1068ZM25.5608 38.0078C25.5613 37.7468 25.4622 37.4955 25.2839 37.3052C25.1055 37.115 24.8614 37.0001 24.6013 36.9842C24.3409 36.974 24.087 37.0671 23.8947 37.2433C23.7025 37.4195 23.5874 37.6646 23.5744 37.9253C23.5646 38.0595 23.5826 38.1943 23.6272 38.3212C23.6719 38.4481 23.7422 38.5644 23.8338 38.6629C23.9254 38.7613 24.0363 38.8398 24.1596 38.8933C24.2828 38.9468 24.4158 38.9742 24.5501 38.9739C24.8102 38.9732 25.06 38.8724 25.2479 38.6923C25.4358 38.5122 25.5474 38.2667 25.5595 38.0065L25.5608 38.0078ZM39.4491 38.9701C39.5782 38.9704 39.706 38.9451 39.8252 38.8954C39.9444 38.8458 40.0526 38.7729 40.1434 38.6811C40.2342 38.5892 40.3058 38.4801 40.3541 38.3602C40.4025 38.2404 40.4265 38.112 40.4248 37.9828C40.4279 37.7223 40.3281 37.4711 40.1473 37.2839C39.9664 37.0967 39.7191 36.9885 39.4591 36.9829C39.3204 36.9683 39.1802 36.983 39.0474 37.0259C38.9147 37.0689 38.7925 37.1393 38.6886 37.2325C38.5847 37.3257 38.5014 37.4397 38.4442 37.5671C38.387 37.6945 38.3571 37.8325 38.3564 37.9722C38.3557 38.112 38.3842 38.2503 38.4402 38.3782C38.4961 38.5062 38.5782 38.621 38.6811 38.7153C38.7841 38.8096 38.9056 38.8811 39.0379 38.9255C39.1702 38.9698 39.3103 38.9858 39.4491 38.9726V38.9701ZM45.0551 32.1076C45.0594 31.9969 45.0414 31.8866 45.0021 31.7831C44.9628 31.6797 44.9031 31.5852 44.8265 31.5054C44.7499 31.4257 44.658 31.3622 44.5563 31.3188C44.4546 31.2755 44.3452 31.2531 44.2347 31.2531C44.1242 31.2531 44.0149 31.2755 43.9132 31.3188C43.8115 31.3622 43.7196 31.4257 43.643 31.5054C43.5664 31.5852 43.5067 31.6797 43.4674 31.7831C43.4281 31.8866 43.4101 31.9969 43.4144 32.1076C43.4175 32.3261 43.5045 32.535 43.6574 32.691C43.8103 32.8469 44.0173 32.9379 44.2354 32.9449C44.3439 32.9441 44.4513 32.9218 44.5513 32.8794C44.6513 32.837 44.7419 32.7753 44.818 32.6977C44.8942 32.6202 44.9543 32.5284 44.995 32.4275C45.0357 32.3267 45.0561 32.2188 45.0551 32.11V32.1076ZM20.5836 32.1076C20.5853 31.8888 20.5011 31.6782 20.3492 31.521C20.1972 31.3639 19.9897 31.2729 19.7714 31.2677C19.6622 31.2664 19.5539 31.2866 19.4526 31.3272C19.3513 31.3679 19.2589 31.4281 19.1809 31.5044C19.0231 31.6586 18.9331 31.8693 18.9304 32.0901C18.9278 32.3108 19.0128 32.5236 19.1667 32.6815C19.3207 32.8395 19.531 32.9298 19.7514 32.9324C19.9678 32.9284 20.1744 32.8416 20.3289 32.6899C20.4834 32.5381 20.5741 32.3329 20.5824 32.1163L20.5836 32.1076Z" fill="white"/>
<path d="M22.1695 56.8957C23.0154 57.8031 23.8027 58.6854 24.6387 59.5203C24.8838 59.7581 25.2005 59.9079 25.5396 59.9464C27.1354 60.0577 28.7362 60.0902 30.3321 60.1964C30.8162 60.2289 31.1094 60.1089 31.3202 59.6652C31.5253 59.2839 31.7507 58.9139 31.9953 58.5567C32.2797 59.0078 32.4943 59.4315 32.7988 59.8064C32.951 59.9939 33.2442 60.1814 33.4688 60.1814C35.1707 60.1381 36.8722 60.0614 38.5732 59.9514C38.8452 59.9339 39.1547 59.739 39.3555 59.5353C40.184 58.6929 40.9776 57.8156 41.8298 56.9007L44.299 59.2416C43.3632 60.4076 42.4761 61.5324 41.5603 62.6335C41.4043 62.7848 41.196 62.8699 40.9788 62.8709C34.9898 62.8834 29.0041 62.8834 23.0217 62.8709C22.7853 62.8625 22.5614 62.7621 22.3978 62.591C21.4932 61.5062 20.6211 60.3951 19.699 59.2453L22.1695 56.8957Z" fill="white"/>
<path d="M16.1031 22.3218C15.7537 15.043 15.4081 7.83805 15.0587 0.575568L16.1567 0.45059C16.42 1.24295 16.6845 2.02031 16.9353 2.80143C18.3211 7.134 19.7027 11.4666 21.0802 15.7992C21.1085 15.8962 21.1156 15.9983 21.101 16.0984C21.0863 16.1984 21.0503 16.2942 20.9954 16.3791C20.1507 17.3239 19.2311 18.205 18.4238 19.1798C17.6166 20.1546 16.9116 21.2232 16.1031 22.3218Z" fill="white"/>
<path d="M47.8226 0.461835L48.938 0.56682C48.5911 7.81555 48.2455 15.023 47.8962 22.3218C47.7928 22.2176 47.6962 22.1069 47.6067 21.9906C46.3306 19.9637 44.8071 18.1042 43.0712 16.4553C42.9465 16.3403 42.8217 16.0929 42.8704 15.9554C44.5024 10.8113 46.1531 5.66967 47.8226 0.461835Z" fill="white"/>
<path d="M16.2041 26.2848C16.2041 25.2912 16.2041 24.2977 16.2041 23.3028C16.2074 23.1809 16.2427 23.0619 16.3065 22.9579C18.5399 19.2773 21.2836 16.0841 25.1016 13.972C25.8602 13.5508 26.6862 13.2534 27.4848 12.9047C27.6376 12.8626 27.7937 12.8333 27.9514 12.8172L16.3639 26.3473L16.2041 26.2848Z" fill="white"/>
<path d="M16.1255 42.8369C16.1255 44.7291 16.1255 46.5963 16.1181 48.4609C16.1171 48.53 16.1014 48.598 16.0722 48.6605C16.0429 48.723 16.0007 48.7785 15.9484 48.8234C15.0999 49.3233 14.2378 49.8045 13.2159 50.3844V42.8369H16.1255Z" fill="white"/>
<path d="M47.8912 42.8144H50.8083V50.4018C50.1733 50.0419 49.7278 49.7032 49.2262 49.527C48.0696 49.1108 47.7489 48.3572 47.8537 47.1524C47.991 45.7314 47.8912 44.2904 47.8912 42.8144Z" fill="white"/>
<path d="M45.3084 57.9805L43.1062 55.5184L47.1163 51.218C47.8425 51.7841 48.555 52.3428 49.3373 52.9464C48.0197 54.5924 46.7171 56.2171 45.3084 57.9805Z" fill="white"/>
<path d="M20.8694 55.4935L18.6946 57.978L14.6582 52.9464L16.8792 51.218L20.8694 55.4935Z" fill="white"/>
<path d="M25.6656 8.85037L30.7925 7.71807V11.7724C29.7943 11.9623 28.8498 12.1573 27.894 12.311C27.8034 12.3132 27.7136 12.2937 27.632 12.2541C27.5504 12.2146 27.4794 12.1561 27.4249 12.0836C26.8534 11.0762 26.3132 10.0502 25.6656 8.85037Z" fill="white"/>
<path d="M33.2068 7.72556L38.3224 8.85037C37.6799 10.0502 37.1134 11.1262 36.522 12.1873C36.4683 12.2823 36.2425 12.3448 36.114 12.3223C35.1595 12.1573 34.2087 11.9661 33.2031 11.7736L33.2068 7.72556Z" fill="white"/>
<path d="M51.4334 24.5726H48.2094C48.2742 23.4478 48.3341 22.4055 48.404 21.3607C48.404 21.2819 48.5163 21.197 48.5949 21.1395C49.5282 20.4521 50.4665 19.7647 51.4334 19.0611V24.5726Z" fill="white"/>
<path d="M12.587 19.0761C13.5328 19.7697 14.4711 20.4508 15.3981 21.1457C15.5079 21.2279 15.582 21.3491 15.6052 21.4844C15.6776 22.4742 15.73 23.4653 15.7912 24.5514H12.587L12.587 19.0761Z" fill="white"/>
<path d="M48.1345 32.0963H51.129V35.2757H48.1345V32.0963Z" fill="white"/>
<path d="M12.8915 32.0863L15.856 32.0863V35.2432L12.8915 35.3832L12.8915 32.0863Z" fill="white"/>
<path d="M51.2588 26.7447V29.663H48.1981V26.5698L51.2588 26.7447Z" fill="white"/>
<path d="M15.7949 29.6555H12.7467V26.7485L15.7949 26.566V29.6555Z" fill="white"/>
<path d="M15.9658 37.6153V40.4586L13.025 40.6323V37.7778L15.9658 37.6153Z" fill="white"/>
<path d="M50.9955 37.7666V40.6236L48.0397 40.4623V37.6278L50.9955 37.7666Z" fill="white"/>
<path d="M22.2468 10.3026L23.8127 9.62648C24.4466 10.8013 25.0604 11.9448 25.703 13.1359L24.2519 13.9245L22.2468 10.3026Z" fill="white"/>
<path d="M39.7511 13.9207L38.3 13.1471L40.1716 9.63273L41.7449 10.2939L39.7511 13.9207Z" fill="white"/>
<path d="M15.4967 18.6999L13.0574 17.0052L15.3033 14.8593C15.3694 16.1278 15.4293 17.3339 15.4967 18.6999Z" fill="white"/>
<path d="M50.8283 17.0864L48.5063 18.6924C48.5699 17.3489 48.6311 16.1441 48.6847 14.9118L50.8283 17.0864Z" fill="white"/>
<path d="M42.1592 37.3191C41.9768 37.3316 41.7955 37.3563 41.6164 37.3929C41.4091 37.4647 41.1829 37.4597 40.9789 37.3787C40.7749 37.2978 40.6067 37.1463 40.5047 36.9517C40.3857 36.7787 40.3328 36.5686 40.3557 36.3598C40.3787 36.151 40.4758 35.9574 40.6295 35.8144C40.9651 35.4582 41.3719 35.3745 41.8048 35.6269C42.2378 35.8794 42.3688 36.2593 42.2652 36.738C42.2228 36.9355 42.1879 37.1342 42.1492 37.3329L42.1592 37.3191Z" fill="#24221D"/>
<path d="M21.9436 37.1292C21.6405 36.693 21.5469 36.2056 21.9649 35.8444C22.2044 35.6382 22.6636 35.4932 22.9418 35.5807C23.1025 35.6502 23.2447 35.7563 23.3571 35.8906C23.4696 36.025 23.5491 36.1837 23.5894 36.3543C23.6243 36.6455 23.3935 37.0629 23.1489 37.2729C22.7472 37.6191 22.2993 37.4404 21.9262 37.1092L21.9436 37.1292Z" fill="#24231D"/>
<path d="M19.9585 34.9583C19.9585 34.7733 19.9461 34.5834 19.9486 34.4034C19.956 33.7785 20.3516 33.4036 20.9692 33.4423C21.0977 33.4491 21.2234 33.4829 21.338 33.5415C21.4527 33.6002 21.5537 33.6823 21.6346 33.7826C21.7154 33.883 21.7743 33.9992 21.8073 34.1238C21.8404 34.2484 21.8469 34.3786 21.8264 34.5059C21.7428 35.0683 21.2262 35.4157 20.6448 35.3032C20.5063 35.2757 20.3665 35.252 20.2268 35.2258L19.9585 34.9583Z" fill="#24221D"/>
<path d="M43.7962 35.2208C43.6813 35.2254 43.5671 35.2417 43.4555 35.2695C43.2528 35.3549 43.0259 35.3632 42.8175 35.2927C42.6091 35.2223 42.4335 35.078 42.3239 34.8871C42.0743 34.5021 42.0581 34.0222 42.4237 33.7623C42.7518 33.5475 43.1504 33.4687 43.5354 33.5423C44.0045 33.6673 44.1193 34.136 44.0345 34.6109C44.0071 34.71 43.9712 34.8066 43.9272 34.8996H43.9147C43.8723 35.0083 43.8299 35.1183 43.7899 35.227L43.7962 35.2208Z" fill="#25231D"/>
<path d="M43.7899 35.2283C43.8336 35.1195 43.876 35.0095 43.9147 34.9008C43.8735 35.0095 43.8311 35.1195 43.7899 35.2283Z" fill="#FCA600"/>
<path d="M35.57 42.5407C36.1077 43.0481 36.5894 43.4731 37.036 43.9317C37.5563 44.4666 38.0454 45.0315 38.5483 45.5827C38.9737 46.0489 39.0785 46.5663 38.945 47.1962C38.7329 48.1885 38.7354 48.2235 37.731 48.2422C37.474 48.9009 37.2931 49.5932 36.945 50.1894C36.6233 50.7412 36.2024 51.2285 35.7035 51.6266C34.6579 52.4452 33.5337 53.1614 32.4594 53.9437C32.1462 54.1712 31.9104 54.2162 31.5798 53.975C30.4369 53.1439 29.264 52.3503 28.1211 51.5242C27.1591 50.8255 26.7486 49.7745 26.4492 48.6822C26.4117 48.5447 26.3855 48.4035 26.388 48.4147C25.9351 48.216 25.3824 48.146 25.2776 47.8923C25.0118 47.2462 24.6961 46.4938 25.2776 45.8351C26.0923 44.9228 26.9408 44.0417 27.7792 43.1519C27.9626 42.9582 28.166 42.7844 28.4206 42.5457C27.9539 42.2458 27.5472 41.9733 27.1279 41.7209C26.8235 41.5372 26.7037 41.3597 26.9807 41.0372C27.9564 39.9012 28.9109 38.7489 29.8904 37.6153C29.9827 37.5079 30.1836 37.4904 30.3333 37.4366C30.2884 37.5941 30.2859 37.7866 30.1898 37.9015C29.2665 39.0263 28.327 40.1274 27.3313 41.3097C28.5441 41.7609 29.702 42.1295 30.8137 42.6245C31.6384 42.9994 32.3596 42.9869 33.1843 42.6245C34.2798 42.1383 35.4302 41.7721 36.6542 41.3172C36.1651 40.731 35.7222 40.1924 35.2755 39.6687C34.7664 39.0638 34.2474 38.4677 33.752 37.8528C33.6722 37.7528 33.6897 37.5728 33.6622 37.4304C33.7995 37.4766 33.9854 37.4816 34.0677 37.5766C35.0584 38.7264 36.0291 39.8924 37.0148 41.0472C37.2544 41.3259 37.2082 41.5122 36.9075 41.6946C36.4846 41.9483 36.0691 42.2195 35.57 42.5407ZM28.443 43.0281C27.5546 43.9692 26.6962 44.8966 25.8228 45.8127C25.4185 46.2363 25.4198 46.7212 25.5046 47.2624C25.5932 47.8273 25.9089 47.9348 26.3281 47.7048C27.3612 47.1362 28.3906 46.555 29.3713 45.9026C29.7244 45.6677 29.924 45.6027 30.2834 45.8514C32.2086 47.1812 31.7807 47.1912 33.6934 45.8701C34.0677 45.6077 34.2773 45.6664 34.6554 45.9214C35.6432 46.5654 36.6626 47.1594 37.7098 47.7011C37.8758 47.7911 38.3424 47.7011 38.3786 47.5898C38.5632 47.0449 38.7529 46.4575 38.275 45.9439C37.3767 44.9703 36.4733 44.0017 35.565 43.0219C34.5306 43.6843 33.5886 44.2554 32.684 44.8803C32.2136 45.2053 31.8468 45.2552 31.3489 44.9028C30.4506 44.2629 29.4998 43.703 28.443 43.0281ZM30.065 46.925L27.0381 49.2995L27.9227 50.8393C30.6901 49.4045 33.3353 49.4133 36.084 50.848C36.3897 50.2806 36.6929 49.7232 36.9225 49.2895L33.928 46.9287C32.2498 48.5022 31.6659 48.5034 30.065 46.925Z" fill="#20201E"/>
<path d="M34.0577 32.21C34.9985 31.7939 35.9468 31.3939 36.8751 30.9515C37.0159 30.8695 37.178 30.8315 37.3405 30.8424C37.503 30.8534 37.6585 30.9127 37.7872 31.0127C38.5957 31.5539 39.4341 32.0526 40.2452 32.59C40.3949 32.69 40.4735 32.8962 40.5846 33.0536C40.4273 33.1624 40.2851 33.3211 40.1104 33.3736C39.1796 33.6535 38.2438 33.9164 37.3031 34.1622C37.1275 34.1987 36.9448 34.174 36.7852 34.0922C35.9792 33.6673 35.1757 33.2361 34.3959 32.7649C34.2312 32.665 34.1725 32.39 34.0652 32.1975L34.0577 32.21Z" fill="#FCA600"/>
<path d="M29.929 32.1975C29.8405 32.3813 29.7531 32.5725 29.6583 32.7474C29.6421 32.7799 29.5909 32.7937 29.5547 32.8149C26.9245 34.3634 26.6351 34.3922 23.7628 33.3461C23.6281 33.2973 23.4509 33.1649 23.4322 33.0499C23.4344 32.9721 23.4547 32.8958 23.4915 32.8273C23.5284 32.7587 23.5807 32.6997 23.6443 32.6549C24.5639 32.0538 25.4859 31.4577 26.4342 30.9053C26.5964 30.8115 26.9083 30.884 27.1129 30.9702C28.0612 31.3664 28.997 31.7939 29.9378 32.2113L29.929 32.1975Z" fill="#FCA600"/>
<path d="M29.2415 30.4816C29.7469 30.0079 30.1985 29.5855 30.649 29.1618L30.8299 29.308C30.7907 29.443 30.7337 29.572 30.6602 29.6917C29.4462 31.154 29.4437 31.1527 27.6657 30.4741C26.9096 30.1854 26.1684 29.8604 25.3923 29.6292C25.0499 29.5353 24.6867 29.5519 24.3542 29.6767C23.4347 30.0517 22.5513 30.5216 21.6455 30.934C21.4583 31.019 21.2337 31.0165 21.0216 31.059L20.9505 30.8715C21.0473 30.7499 21.1532 30.6358 21.2674 30.5303C22.2244 29.7655 23.1964 29.0168 24.1371 28.2382C24.4628 27.9695 24.7286 27.9683 25.0866 28.1732C26.4666 28.9506 27.8491 29.7067 29.2415 30.4816Z" fill="#23221E"/>
<path d="M33.4214 29.1056L34.4483 30.6503C36.109 29.728 37.4765 28.9918 38.8153 28.212C39.2383 27.962 39.5365 27.962 39.9208 28.2907C40.7942 29.0268 41.7075 29.7142 42.6021 30.4266C42.7568 30.5516 42.8941 30.6978 43.0401 30.8353L42.9764 31.0365C42.7743 31.009 42.5522 31.0277 42.3725 30.9465C41.4842 30.5453 40.5983 30.1366 39.7311 29.6967C39.5458 29.5883 39.3372 29.5261 39.1228 29.5155C38.9085 29.5048 38.6947 29.546 38.4996 29.6355C37.3891 30.0979 36.2537 30.4991 35.137 30.9453C34.8313 31.0702 34.6217 31.0852 34.3884 30.7928C34.1052 30.4366 33.7483 30.1404 33.4389 29.803C33.3291 29.6593 33.2314 29.5067 33.1469 29.3468L33.4214 29.1056Z" fill="#22221E"/>
<path d="M34.0677 32.1975C33.7508 32.8562 33.7446 33.4223 34.2773 34.0422C35.4115 35.3645 36.4633 36.7592 37.5451 38.1265C37.6699 38.279 37.7647 38.4477 37.8745 38.6089L37.7597 38.7539C37.6025 38.6777 37.4141 38.6352 37.2956 38.5202C35.7447 37.0204 34.2087 35.4995 32.6578 33.9972C32.3671 33.7148 32.3097 33.4686 32.5755 33.1399C32.9635 32.6624 33.3241 32.165 33.7957 31.5501C33.9205 31.8676 33.9904 32.0388 34.059 32.2113L34.0677 32.1975Z" fill="#22211E"/>
<path d="M29.9403 32.2113L30.1898 31.5064C30.7251 32.235 31.1755 32.8124 31.571 33.4236C31.6347 33.5198 31.5049 33.8248 31.3801 33.9485C29.8197 35.499 28.2488 37.0404 26.6675 38.5727C26.5485 38.6583 26.4184 38.7273 26.2807 38.7776L26.1559 38.6527C26.2338 38.488 26.3244 38.3296 26.4267 38.179C27.5185 36.7942 28.5803 35.382 29.7294 34.046C30.2659 33.4211 30.251 32.8587 29.939 32.2L29.9403 32.2113Z" fill="#21211E"/>
<path d="M25.5595 38.0065C25.5474 38.2667 25.4358 38.5122 25.2479 38.6923C25.0598 38.8721 24.8089 38.9723 24.5489 38.9726C24.4145 38.973 24.2816 38.9455 24.1583 38.892C24.035 38.8385 23.9241 38.7601 23.8325 38.6616C23.7409 38.5632 23.6706 38.4469 23.626 38.32C23.5814 38.193 23.5634 38.0582 23.5732 37.924C23.5861 37.6633 23.7012 37.4183 23.8935 37.2421C24.0857 37.0659 24.3396 36.9727 24.6 36.9829C24.8601 36.9989 25.1043 37.1137 25.2826 37.304C25.461 37.4942 25.56 37.7455 25.5595 38.0065Z" fill="#23221D"/>
<path d="M39.4491 38.9701C39.3103 38.9833 39.1702 38.9673 39.0379 38.923C38.9056 38.8786 38.7841 38.8071 38.6811 38.7128C38.5782 38.6185 38.4961 38.5037 38.4402 38.3757C38.3842 38.2478 38.3557 38.1095 38.3564 37.9698C38.3571 37.83 38.387 37.692 38.4442 37.5646C38.5014 37.4372 38.5847 37.3232 38.6886 37.23C38.7925 37.1368 38.9147 37.0664 39.0474 37.0234C39.1802 36.9805 39.3204 36.9658 39.4591 36.9805C39.7191 36.986 39.9664 37.0942 40.1473 37.2814C40.3281 37.4686 40.4279 37.7198 40.4248 37.9803C40.4268 38.1098 40.403 38.2383 40.3549 38.3585C40.3067 38.4787 40.2351 38.588 40.1443 38.6802C40.0534 38.7723 39.9446 38.8457 39.8252 38.8954C39.706 38.9451 39.5782 38.9704 39.4491 38.9701Z" fill="#23221D"/>
<path d="M45.0551 32.11C45.0564 32.3293 44.9709 32.54 44.8172 32.6961C44.6635 32.8522 44.4542 32.9408 44.2354 32.9424C44.0173 32.9354 43.8103 32.8444 43.6574 32.6885C43.5045 32.5325 43.4175 32.3236 43.4144 32.1051C43.4101 31.9944 43.4281 31.8841 43.4674 31.7806C43.5067 31.6772 43.5664 31.5827 43.643 31.5029C43.7196 31.4232 43.8115 31.3597 43.9132 31.3163C44.0149 31.273 44.1242 31.2506 44.2347 31.2506C44.3452 31.2506 44.4546 31.273 44.5563 31.3163C44.658 31.3597 44.7499 31.4232 44.8265 31.5029C44.9031 31.5827 44.9628 31.6772 45.0021 31.7806C45.0414 31.8841 45.0594 31.9944 45.0551 32.1051L45.0551 32.11Z" fill="#27241D"/>
<path d="M20.5824 32.1163C20.5763 32.3346 20.4864 32.5422 20.3314 32.6959C20.1764 32.8495 19.9682 32.9374 19.7502 32.9412C19.5856 32.9409 19.4247 32.8917 19.2881 32.7997C19.1514 32.7078 19.0451 32.5773 18.9826 32.4247C18.9202 32.2722 18.9043 32.1045 18.9371 31.9429C18.97 31.7813 19.0499 31.6331 19.167 31.5171C19.284 31.4012 19.4327 31.3226 19.5944 31.2914C19.756 31.2603 19.9233 31.2779 20.0749 31.3421C20.2266 31.4063 20.3557 31.5141 20.4461 31.652C20.5364 31.7898 20.5839 31.9514 20.5824 32.1163Z" fill="#26241D"/>
<path d="M28.443 43.0281C29.4961 43.703 30.4468 44.2629 31.3415 44.9028C31.8405 45.259 32.2061 45.2053 32.6765 44.8803C33.5811 44.2554 34.5231 43.6843 35.5575 43.0219C36.4658 44.0017 37.3692 44.9703 38.2675 45.9439C38.7417 46.4575 38.5558 47.0449 38.3711 47.5898C38.3349 47.6973 37.872 47.7911 37.7023 47.7011C36.6551 47.1594 35.6357 46.5654 34.6479 45.9214C34.2736 45.6714 34.064 45.6077 33.6859 45.8702C31.7794 47.1912 32.2011 47.1812 30.2759 45.8514C29.9166 45.6014 29.7169 45.6677 29.3638 45.9026C28.3831 46.555 27.3537 47.1362 26.3206 47.7048C25.9014 47.9348 25.5857 47.8298 25.4971 47.2624C25.4123 46.7212 25.4111 46.2363 25.8153 45.8127C26.6962 44.8966 27.5546 43.9692 28.443 43.0281Z" fill="white"/>
<path d="M30.065 46.925C31.6609 48.5034 32.2448 48.5022 33.933 46.925L36.9275 49.2858C36.6979 49.7145 36.3947 50.2769 36.089 50.8443C33.344 49.4095 30.6951 49.4008 27.9277 50.8355L27.0431 49.2958L30.065 46.925Z" fill="white"/>
<path d="M20.8613 32.0485C20.8613 32.7124 20.324 33.2505 19.6613 33.2505C18.9985 33.2505 18.4613 32.7124 18.4613 32.0485C18.4613 31.3847 18.9985 30.8465 19.6613 30.8465C20.324 30.8465 20.8613 31.3847 20.8613 32.0485Z" fill="white"/>
<path d="M22.1245 34.326C22.1245 34.9899 21.5872 35.528 20.9245 35.528C20.2617 35.528 19.7244 34.9899 19.7244 34.326C19.7244 33.6622 20.2617 33.124 20.9245 33.124C21.5872 33.124 22.1245 33.6622 22.1245 34.326Z" fill="white"/>
<path d="M24.0193 36.3504C24.0193 37.0143 23.482 37.5524 22.8193 37.5524C22.1565 37.5524 21.6192 37.0143 21.6192 36.3504C21.6192 35.6866 22.1565 35.1484 22.8193 35.1484C23.482 35.1484 24.0193 35.6866 24.0193 36.3504Z" fill="white"/>
<path d="M25.7877 37.9968C25.7877 38.6607 25.2505 39.1988 24.5877 39.1988C23.925 39.1988 23.3877 38.6607 23.3877 37.9968C23.3877 37.333 23.925 36.7948 24.5877 36.7948C25.2505 36.7948 25.7877 37.333 25.7877 37.9968Z" fill="white"/>
<path d="M40.6932 37.8688C40.6932 38.5326 40.1559 39.0708 39.4932 39.0708C38.8304 39.0708 38.2932 38.5326 38.2932 37.8688C38.2932 37.2049 38.8304 36.6668 39.4932 36.6668C40.1559 36.6668 40.6932 37.2049 40.6932 37.8688Z" fill="white"/>
<path d="M42.4617 36.3504C42.4617 37.0143 41.9244 37.5524 41.2616 37.5524C40.5989 37.5524 40.0616 37.0143 40.0616 36.3504C40.0616 35.6866 40.5989 35.1484 41.2616 35.1484C41.9244 35.1484 42.4617 35.6866 42.4617 36.3504Z" fill="white"/>
<path d="M44.2301 34.1995C44.2301 34.8633 43.6929 35.4015 43.0301 35.4015C42.3673 35.4015 41.8301 34.8633 41.8301 34.1995C41.8301 33.5356 42.3673 32.9975 43.0301 32.9975C43.6929 32.9975 44.2301 33.5356 44.2301 34.1995Z" fill="white"/>
<path d="M45.2407 32.1751C45.2407 32.8389 44.7034 33.3771 44.0406 33.3771C43.3779 33.3771 42.8406 32.8389 42.8406 32.1751C42.8406 31.5112 43.3779 30.9731 44.0406 30.9731C44.7034 30.9731 45.2407 31.5112 45.2407 32.1751Z" fill="white"/>
<path d="M19.5885 31.5733C19.0779 32.0497 19.3912 33.0553 20.0527 33.0553C20.7026 33.0553 21.016 31.9703 20.4937 31.5468C20.1572 31.269 19.9019 31.2822 19.5885 31.5733ZM20.0295 31.7453C20.0063 31.8247 19.9367 31.8776 19.8786 31.8776C19.8206 31.8776 19.751 31.8247 19.7278 31.7453C19.7046 31.6659 19.7742 31.5998 19.8786 31.5998C19.9831 31.5998 20.0527 31.6659 20.0295 31.7453Z" fill="#1F2225"/>
<path d="M43.4909 31.5468C42.9474 31.9703 43.2827 33.0553 43.9534 33.0553C44.5894 33.0553 44.8901 32.0364 44.3928 31.5733C44.0806 31.2822 43.8262 31.269 43.4909 31.5468ZM44.2541 31.7453C44.231 31.8247 44.1616 31.8776 44.1038 31.8776C44.0459 31.8776 43.9765 31.8247 43.9534 31.7453C43.9303 31.6659 43.9997 31.5998 44.1038 31.5998C44.2078 31.5998 44.2772 31.6659 44.2541 31.7453Z" fill="#1F2225"/>
<path d="M20.5089 33.8149C20.135 34.1737 20.1083 34.3731 20.322 34.8516C20.4688 35.1839 20.9496 35.4763 21.3235 35.4763C21.6574 35.4763 22.1782 34.8516 22.1782 34.4396C22.1782 33.9611 21.6841 33.4826 21.19 33.4826C20.9897 33.4826 20.6959 33.6155 20.5089 33.8149ZM21.0831 33.9079C21.003 34.1472 20.7092 34.187 20.7092 33.9611C20.7092 33.8414 20.8027 33.7484 20.9229 33.7484C21.0431 33.7484 21.1098 33.8149 21.0831 33.9079Z" fill="#1F2225"/>
<path d="M42.0919 33.7842C41.9317 33.9574 41.7981 34.2639 41.7981 34.4637C41.7981 34.8501 42.3189 35.4763 42.6528 35.4763C43.0267 35.4763 43.5074 35.1832 43.6543 34.8501C43.868 34.3704 43.8413 34.1706 43.4674 33.8109C43.0534 33.3845 42.4792 33.3712 42.0919 33.7842ZM43.2671 33.9574C43.2671 34.1839 42.9733 34.1439 42.8932 33.9041C42.8664 33.8109 42.9332 33.7442 43.0534 33.7442C43.1736 33.7442 43.2671 33.8375 43.2671 33.9574Z" fill="#1F2225"/>
<path d="M22.2391 35.6954C21.5675 36.2959 21.9406 37.47 22.7988 37.47C23.6819 37.47 24.0799 36.3226 23.3959 35.7488C22.9854 35.4019 22.5874 35.3886 22.2391 35.6954ZM22.6247 35.9356C22.6247 36.0023 22.5625 36.0824 22.4879 36.1091C22.4133 36.1358 22.3511 36.0557 22.3511 35.9356C22.3511 35.8155 22.4133 35.7355 22.4879 35.7622C22.5625 35.7888 22.6247 35.8689 22.6247 35.9356Z" fill="#1F2225"/>
<path d="M40.5425 35.7372C40.1621 36.0853 40.1275 36.7948 40.4733 37.1964C41.0381 37.8523 42.0755 37.2365 41.9257 36.3262C41.7873 35.5096 41.1073 35.2151 40.5425 35.7372ZM41.5107 35.9246C41.5107 36.0317 41.4646 36.1254 41.407 36.1254C41.2571 36.1254 41.1534 35.9113 41.2456 35.8042C41.3724 35.6569 41.5107 35.7238 41.5107 35.9246Z" fill="#1F2225"/>
<path d="M24.0237 37.1954C23.4095 37.7959 23.8635 38.7517 24.7713 38.7517C25.3453 38.7517 25.7325 38.3841 25.7325 37.8326C25.7325 36.9871 24.6511 36.5827 24.0237 37.1954ZM24.6912 37.5875C24.6912 37.6488 24.6244 37.7223 24.5443 37.7468C24.4642 37.7714 24.3975 37.6978 24.3975 37.5875C24.3975 37.4772 24.4642 37.4037 24.5443 37.4282C24.6244 37.4527 24.6912 37.5263 24.6912 37.5875Z" fill="#1F2225"/>
<path d="M38.5093 37.1434C38.35 37.2918 38.2438 37.5516 38.2438 37.8238C38.2438 38.3805 38.6288 38.7517 39.213 38.7517C40.1159 38.7517 40.5806 37.7248 39.93 37.1681C39.5317 36.8217 38.8678 36.8093 38.5093 37.1434ZM39.5715 37.5764C39.5715 37.6754 39.5184 37.762 39.452 37.762C39.2794 37.762 39.1599 37.564 39.2662 37.465C39.4122 37.3289 39.5715 37.3908 39.5715 37.5764Z" fill="#1F2225"/>
</svg>
