<svg width="24" height="24" viewBox="0 0 24 24" fill="none" xmlns="http://www.w3.org/2000/svg">
<path d="M14.3438 5.33539C14.3438 4.04671 13.2894 2.99235 12.0007 2.99235C10.7121 2.99235 9.65768 4.04671 9.65768 5.33539M12.0007 0.649292V1.82082M7.93945 2.99235L8.95477 3.5781M15.0467 3.5781L16.062 2.99235" stroke="#DBDEE1" stroke-miterlimit="10" stroke-linecap="round" stroke-linejoin="round"/>
<path d="M22.3211 23.3506H1.67969L12.0004 5.88477L22.3211 23.3506Z" stroke="#DBDEE1" stroke-miterlimit="10" stroke-linejoin="round"/>
<path d="M15.0454 23.3506H8.95508L12.0002 18.1973L15.0454 23.3506Z" stroke="#DBDEE1" stroke-miterlimit="10" stroke-linejoin="round"/>
<path d="M11.3457 10.8098C11.3457 10.4481 11.6389 10.1549 12.0006 10.1549C12.3624 10.1549 12.6556 10.4481 12.6556 10.8098C12.6556 11.1716 12.3624 11.4648 12.0006 11.4648C11.6389 11.4648 11.3457 11.1716 11.3457 10.8098Z" stroke="#DBDEE1" stroke-miterlimit="10" stroke-linejoin="round"/>
<path d="M6.79883 14.6177H17.2027" stroke="#DBDEE1" stroke-miterlimit="10" stroke-linejoin="round"/>
</svg>
