<svg width="32" height="32" viewBox="0 0 32 32" fill="none" xmlns="http://www.w3.org/2000/svg">
<path d="M31.5247 6.58244C30.4113 7.07578 29.2153 7.40911 27.958 7.55978C29.2553 6.7835 30.2259 5.56173 30.6887 4.12244C29.4698 4.84643 28.1358 5.35604 26.7447 5.62911C25.8092 4.63026 24.5701 3.96821 23.2198 3.74574C21.8695 3.52327 20.4835 3.75283 19.277 4.39878C18.0705 5.04473 17.111 6.07093 16.5475 7.31805C15.984 8.56517 15.848 9.96344 16.1607 11.2958C13.6909 11.1718 11.2748 10.5298 9.06923 9.41165C6.86363 8.29346 4.91779 6.72399 3.358 4.80511C2.82467 5.72511 2.518 6.79178 2.518 7.92778C2.51741 8.95044 2.76924 9.95743 3.25117 10.8594C3.7331 11.7614 4.43022 12.5305 5.28067 13.0984C4.29437 13.0671 3.32983 12.8006 2.46733 12.3211V12.4011C2.46723 13.8354 2.96338 15.2256 3.87158 16.3358C4.77978 17.4459 6.0441 18.2077 7.45 18.4918C6.53505 18.7394 5.57578 18.7759 4.64467 18.5984C5.04133 19.8326 5.81399 20.9118 6.85449 21.685C7.89499 22.4582 9.15122 22.8867 10.4473 22.9104C8.24711 24.6377 5.52985 25.5746 2.73267 25.5704C2.23717 25.5706 1.7421 25.5416 1.25 25.4838C4.0893 27.3093 7.39445 28.2782 10.77 28.2744C22.1967 28.2744 28.4433 18.8104 28.4433 10.6024C28.4433 10.3358 28.4367 10.0664 28.4247 9.79978C29.6397 8.92108 30.6885 7.83297 31.522 6.58644L31.5247 6.58244Z" fill="#CC2B17"/>
</svg>
