<svg width="24" height="24" viewBox="0 0 24 24" fill="none" xmlns="http://www.w3.org/2000/svg">
<path d="M9.48192 0.519287C8.69306 0.575636 7.96081 0.631543 7.22827 0.856935C6.77749 1.02598 6.21342 1.36441 5.7063 1.25171C5.53725 1.19536 5.42491 1.08252 5.25586 1.08252C5.0868 1.08252 4.91742 1.13901 4.86108 1.25171C4.80473 1.36441 4.86108 1.42026 4.86108 1.53296C4.80473 1.98374 4.12856 2.09653 4.01588 2.49096C3.95953 2.71636 4.01655 2.99801 3.96021 3.22338C3.8475 3.61781 3.45239 3.7875 3.17065 3.95653C2.66353 4.29464 2.26953 4.68872 1.98779 5.2522C1.93144 5.36489 1.875 5.47788 1.875 5.59057C1.875 5.81597 2.21274 6.04116 2.32544 6.21021C2.55082 6.49195 2.49452 6.88652 2.38184 7.22461C2.26914 7.5627 2.04409 7.84449 1.9314 8.12623C1.87505 8.23892 1.875 8.35113 1.875 8.40748C1.93135 8.46382 1.98784 8.52031 2.04419 8.57667C2.55131 8.9711 3.0018 9.36586 3.39623 9.81666C3.62163 10.0984 3.79052 10.1544 4.07227 10.3235C4.35401 10.4925 4.69214 10.6618 4.97388 10.6055C5.25563 10.5491 5.53734 10.3235 5.81909 10.3235C5.98814 10.3235 6.21401 10.4363 6.38306 10.4363C6.72115 10.4926 7.05933 10.267 7.34107 10.1543C7.62281 10.0416 8.07295 10.1545 8.29833 10.3799C8.46738 10.4926 8.52408 10.7176 8.69311 10.8303C8.91851 10.9994 9.20016 10.943 9.42553 10.8303C9.65093 10.9994 9.8767 11.4502 9.8767 11.6755C9.8767 11.9009 9.76397 12.0705 9.82031 12.2395C9.87666 12.8593 9.93272 13.1972 10.3271 13.7044C10.7216 14.2115 10.9468 14.7186 10.9468 15.3948C10.8904 16.071 10.3835 16.6346 10.3835 17.3108C10.3835 18.0433 11.2289 18.6063 11.3979 19.2825C11.4543 19.5079 11.4544 19.7902 11.5107 20.0156C11.6234 20.5228 11.8486 20.9733 12.1304 21.4241C12.2431 21.5931 12.4124 21.7055 12.4688 21.9309C12.4688 22.0436 12.4688 22.1566 12.4688 22.2693C12.4688 22.551 12.6938 22.8326 12.9756 22.9453C13.1446 23.0017 13.3698 22.9453 13.5952 22.8889C14.215 22.8326 15.3424 22.6072 15.7368 22.0437C15.9059 21.6493 16.1311 21.2546 16.4128 20.9729C16.5819 20.8039 16.7512 20.6351 16.6948 20.4097C16.6385 20.297 16.582 20.2404 16.582 20.1841C16.582 20.0714 16.807 20.0156 16.9197 20.0156C17.0324 20.0156 17.1454 20.0156 17.2581 20.0156C17.5398 19.9593 17.652 19.6207 17.5957 19.3953C17.5394 19.1135 17.258 18.9446 17.1453 18.6628C17.0889 18.6065 17.0889 18.55 17.0889 18.4936C17.0889 18.2683 17.4832 17.8739 17.7649 17.7048C18.103 17.5358 18.4975 17.3669 18.6665 17.0288C18.7792 16.7471 18.7792 16.4653 18.6665 16.1836C18.5538 15.6201 18.3288 15.113 18.2725 14.5496C18.1598 13.9861 18.4976 13.4227 18.7793 12.9155C19.0047 12.5774 19.3428 12.2957 19.6809 12.0703C20.8079 11.2251 22.7236 9.53442 22.1038 8.40748C21.7093 8.74556 21.0332 8.97148 20.4697 9.02784C20.3007 9.02784 20.132 9.02778 20.0193 8.97143C19.9066 8.91509 19.7936 8.80214 19.7373 8.68945C19.3992 8.29502 19.2301 7.73117 18.8357 7.39308C18.6103 7.22402 18.3851 7.11162 18.2161 6.88622C17.9907 6.66085 17.8776 6.32271 17.7649 5.98463C17.4268 5.02671 17.4269 4.23769 17.0325 3.2798C16.9198 3.0544 16.8074 2.77294 16.582 2.77294C16.4693 2.77294 16.3563 2.77294 16.1873 2.77294C15.3984 2.88565 14.6661 2.32236 13.8772 2.15332C13.7081 2.09697 13.4823 2.09702 13.3696 2.20972C13.2006 2.37877 13.2574 2.6603 13.0884 2.82935C12.9757 2.94204 12.7499 2.94209 12.5808 2.88574C12.4118 2.8294 12.2994 2.71645 12.1304 2.60377C11.5669 2.20933 10.4402 2.04019 9.8767 1.64575C9.98941 1.47671 10.0452 1.30796 10.1016 1.13892C10.1579 0.969873 10.0458 0.688379 9.8767 0.575685C9.76402 0.519336 9.59463 0.519287 9.48192 0.519287Z" stroke="#DBDEE1" stroke-width="0.8" stroke-miterlimit="10"/>
<path d="M21.9911 15.1694C21.822 15.5075 21.5966 15.902 21.3149 16.071C21.0895 16.1837 20.8078 16.2964 20.6951 16.5218C20.526 16.8035 20.6951 17.1416 20.6387 17.4233C20.6387 17.5361 20.5824 17.6487 20.526 17.7614C20.4697 18.0432 20.526 18.3813 20.6387 18.663C20.6951 18.8321 20.8078 19.0574 20.9768 19.1138C21.0895 19.1138 21.2585 19.0574 21.3712 18.9447C21.4839 18.8321 21.5966 18.6067 21.653 18.4376C21.7093 18.2686 21.7093 18.0995 21.7093 17.9305C21.7657 17.4233 22.0474 16.9162 22.1601 16.4091C22.2164 16.071 22.2164 15.7329 22.1601 15.3948C22.1038 15.2821 22.0474 15.1694 21.9911 15.1694ZM21.9911 15.1694C21.9911 15.2258 22.0474 15.2258 22.0474 15.2821" stroke="#DBDEE1" stroke-width="0.8" stroke-miterlimit="10"/>
<path d="M4.06641 3.104L7.98691 6.00097L8.00895 6.1884L8.58591 6.05926L10.4252 4.75618L10.8241 4.85964L11.132 5.04749L11.3374 4.99564L11.4805 5.47475L11.5782 5.67027L11.6715 5.87464L11.6004 6.05682L11.5516 6.44338L11.5827 6.90545L11.0097 7.3843L10.8926 7.59416C10.8926 7.59416 10.8731 7.60393 10.9853 7.82844C11.0975 8.05293 11.0878 8.22376 11.0878 8.22376L11.161 8.3897L11.2635 8.55564L10.9999 8.81429L10.7803 9.23889L10.6046 9.64398L10.4436 9.92216L10.2624 10.0313L9.9769 10.0444L9.70898 10.2289L9.57284 10.488L9.5377 10.7164" stroke="#DBDEE1" stroke-width="0.5" stroke-miterlimit="10" stroke-linejoin="round"/>
<path d="M11.3457 5.03107L11.7214 4.79651L13.9676 6.07974L13.9768 7.23886L13.7463 7.29073L13.5608 7.40878L13.5102 7.67299L13.4596 7.98783L13.4765 8.25766L13.6226 8.58373L13.8531 8.83106L13.9993 9.10092L14.3422 8.92664C14.3422 8.92664 14.449 8.82546 14.6289 8.84231C14.8088 8.85919 14.8201 9.03907 14.8201 9.03907L15.1292 9.11215L15.3879 9.12902L15.6802 8.98287L15.8825 8.89292L16.0062 9.03345L16.2817 8.93789L16.4784 8.70178L16.4335 8.41507L16.5853 8.25204L16.7371 8.61745L16.9338 9.0672L17.0912 8.83106L17.2374 8.3982L17.4623 8.12274L17.659 7.81355L17.704 7.38068L17.6759 7.00402L17.8614 6.68358" stroke="#DBDEE1" stroke-width="0.5" stroke-miterlimit="10" stroke-linejoin="round"/>
<path d="M10.5117 17.3584L11.0624 17.3894L11.1943 17.5756L12.4697 17.5383L12.7719 17.6765L14.0584 17.6074L14.4038 17.7887L14.7406 18.2723L14.9305 18.5917L15.2673 18.7471L15.44 18.9975L15.9667 19.0062L16.1134 19.2739L16.1739 19.8178L16.2257 20.3704L16.5106 20.6035" stroke="#DBDEE1" stroke-width="0.5" stroke-miterlimit="10" stroke-linejoin="round"/>
<path d="M13.981 9.11951L14.005 9.43233L14.2777 9.5366L14.6627 9.94566L14.8151 10.1542L14.9996 10.3226L15.3044 10.4991L15.7054 10.7477L15.946 11.0605L16.1065 11.4856L15.9781 11.8947L15.7776 12.2075L15.6012 12.6406L15.5851 13.2422V14.0603L15.8979 14.4132L15.938 14.6538L15.5851 14.7421L15.3766 14.8704L15.3846 15.4238L15.3926 15.7046L15.5691 15.9131L15.8017 15.9772C15.8017 15.9772 15.7134 15.9022 15.7134 16.2018C15.7134 16.5015 15.5008 16.2118 15.5008 16.2118L15.215 15.9207L14.9349 15.7431L14.645 15.6407L14.3529 15.6299L14.0913 15.5246L13.9527 15.9094L13.943 16.0987L13.3994 16.1414L13.4227 17.1777L13.8147 17.618" stroke="#DBDEE1" stroke-width="0.5" stroke-miterlimit="10" stroke-linejoin="round"/>
</svg>
