<svg width="31" height="30" viewBox="0 0 31 30" fill="none" xmlns="http://www.w3.org/2000/svg">
<path fill-rule="evenodd" clip-rule="evenodd" d="M15.5001 1.28676L21.5 4.7511L27.4999 8.21502V22.0717L21.5 25.5357L15.5001 29L9.50003 25.5357L3.5 22.0717V15.1434V8.21502L9.50003 4.7511L15.5001 1.28676Z" fill="#FF6600"/>
<path fill-rule="evenodd" clip-rule="evenodd" d="M15.5003 8.49443L18.8246 11.819L22.1491 15.1432L18.8246 18.4674L15.5003 21.792L12.1761 18.4674L8.85156 15.1432L12.1761 11.819L15.5003 8.49443Z" fill="#FF9600"/>
<path fill-rule="evenodd" clip-rule="evenodd" d="M3.5 8.21519L15.5001 8.49478L8.85127 15.1436L3.5 8.21519Z" fill="#FFB100"/>
<path fill-rule="evenodd" clip-rule="evenodd" d="M3.5 22.0723L15.5001 21.7927L8.85127 15.1439L3.5 22.0723Z" fill="#FF6300"/>
<path fill-rule="evenodd" clip-rule="evenodd" d="M3.5 8.21554V22.0723L8.85127 15.1439L3.5 8.21554Z" fill="#FF8300"/>
<path fill-rule="evenodd" clip-rule="evenodd" d="M27.4999 8.21519L15.5 8.49478L22.1488 15.1436L27.4999 8.21519Z" fill="#FFB100"/>
<path fill-rule="evenodd" clip-rule="evenodd" d="M27.4999 22.0723L15.5 21.7927L22.1488 15.1439L27.4999 22.0723Z" fill="#E65900"/>
<path fill-rule="evenodd" clip-rule="evenodd" d="M27.4996 8.21554V22.0723L22.1484 15.1439L27.4996 8.21554Z" fill="#FF8300"/>
<path fill-rule="evenodd" clip-rule="evenodd" d="M3.5 8.21456L15.5001 8.49414V1.2863L3.5 8.21456Z" fill="#FFCC00"/>
<path fill-rule="evenodd" clip-rule="evenodd" d="M27.4999 8.21456L15.5 8.49414V1.2863L27.4999 8.21456Z" fill="#FFE331"/>
<path fill-rule="evenodd" clip-rule="evenodd" d="M3.5 22.0717L15.5001 21.7922V29L3.5 22.0717Z" fill="#BA1200"/>
<path fill-rule="evenodd" clip-rule="evenodd" d="M27.4999 22.0717L15.5 21.7922V29L27.4999 22.0717Z" fill="#E63000"/>
</svg>
