<svg width="24" height="20" viewBox="0 0 24 20" fill="none" xmlns="http://www.w3.org/2000/svg">
<path d="M23.6435 2.93659C22.8085 3.30659 21.9115 3.55659 20.9685 3.66959C21.9415 3.08738 22.6694 2.17105 23.0165 1.09159C22.1023 1.63458 21.1018 2.01678 20.0585 2.22159C19.3569 1.47245 18.4276 0.975915 17.4148 0.809063C16.4021 0.642211 15.3626 0.81438 14.4577 1.29884C13.5529 1.7833 12.8333 2.55295 12.4107 3.48829C11.988 4.42363 11.886 5.47234 12.1205 6.47159C10.2682 6.37858 8.45613 5.89714 6.80192 5.05849C5.14772 4.21985 3.68834 3.04275 2.5185 1.60359C2.1185 2.29359 1.8885 3.09359 1.8885 3.94559C1.88805 4.71258 2.07693 5.46783 2.43838 6.14432C2.79982 6.82081 3.32266 7.39763 3.9605 7.82359C3.22078 7.80005 2.49737 7.60017 1.8505 7.24059V7.30059C1.85043 8.37633 2.22253 9.41897 2.90368 10.2516C3.58483 11.0842 4.53307 11.6555 5.5875 11.8686C4.90128 12.0543 4.18184 12.0817 3.4835 11.9486C3.781 12.8742 4.3605 13.6836 5.14087 14.2635C5.92124 14.8434 6.86342 15.1648 7.8355 15.1826C6.18533 16.478 4.14739 17.1807 2.0495 17.1776C1.67788 17.1777 1.30658 17.156 0.9375 17.1126C3.06698 18.4818 5.54584 19.2084 8.0775 19.2056C16.6475 19.2056 21.3325 12.1076 21.3325 5.95159C21.3325 5.75159 21.3275 5.54959 21.3185 5.34959C22.2298 4.69056 23.0164 3.87448 23.6415 2.93959L23.6435 2.93659Z" fill="#FDFDFE"/>
</svg>
