<svg width="33" height="32" viewBox="0 0 33 32" fill="none" xmlns="http://www.w3.org/2000/svg">
<path d="M16.5003 29.3337C14.6559 29.3337 12.9225 28.9837 11.3003 28.2837C9.6781 27.5837 8.26699 26.6337 7.06699 25.4337C5.86699 24.2337 4.91699 22.8225 4.21699 21.2003C3.51699 19.5781 3.16699 17.8448 3.16699 16.0003C3.16699 14.1559 3.51699 12.4225 4.21699 10.8003C4.91699 9.1781 5.86699 7.76699 7.06699 6.56699C8.26699 5.36699 9.6781 4.41699 11.3003 3.71699C12.9225 3.01699 14.6559 2.66699 16.5003 2.66699C18.3448 2.66699 20.0781 3.01699 21.7003 3.71699C23.3225 4.41699 24.7337 5.36699 25.9337 6.56699C27.1337 7.76699 28.0837 9.1781 28.7837 10.8003C29.4837 12.4225 29.8337 14.1559 29.8337 16.0003C29.8337 17.8448 29.4837 19.5781 28.7837 21.2003C28.0837 22.8225 27.1337 24.2337 25.9337 25.4337C24.7337 26.6337 23.3225 27.5837 21.7003 28.2837C20.0781 28.9837 18.3448 29.3337 16.5003 29.3337ZM15.067 27.3003V24.567C14.2892 24.567 13.6337 24.2781 13.1003 23.7003C12.567 23.1225 12.3003 22.4448 12.3003 21.667V20.2003L5.46699 13.367C5.35588 13.8114 5.2781 14.2503 5.23366 14.6837C5.18921 15.117 5.16699 15.5559 5.16699 16.0003C5.16699 18.8892 6.10588 21.4114 7.98366 23.567C9.86144 25.7225 12.2225 26.967 15.067 27.3003ZM24.867 23.7003C25.3559 23.167 25.7837 22.6003 26.1503 22.0003C26.517 21.4003 26.8281 20.7725 27.0837 20.117C27.3392 19.4614 27.5281 18.7892 27.6503 18.1003C27.7725 17.4114 27.8337 16.7114 27.8337 16.0003C27.8337 13.6448 27.1892 11.5059 25.9003 9.58366C24.6114 7.66144 22.8892 6.25588 20.7337 5.36699V5.96699C20.7337 6.74477 20.467 7.42255 19.9337 8.00033C19.4003 8.5781 18.7448 8.86699 17.967 8.86699H15.067V11.767C15.067 12.1448 14.917 12.4559 14.617 12.7003C14.317 12.9448 13.9781 13.067 13.6003 13.067H10.8337V16.0003H19.4337C19.8114 16.0003 20.1225 16.1448 20.367 16.4337C20.6114 16.7225 20.7337 17.0559 20.7337 17.4337V21.667H22.167C22.8114 21.667 23.3781 21.8559 23.867 22.2337C24.3559 22.6114 24.6892 23.1003 24.867 23.7003Z" fill="#CC2B17"/>
</svg>
